<?xml version="1.0" encoding="UTF-8"?>
<svg version="1.1" xmlns="http://www.w3.org/2000/svg" width="1728" height="1117">
<path d="M0 0 C570.24 0 1140.48 0 1728 0 C1728 368.61 1728 737.22 1728 1117 C1157.76 1117 587.52 1117 0 1117 C0 748.39 0 379.78 0 0 Z " fill="#FEFBEF" transform="translate(0,0)"/>
<path d="M0 0 C0.99 0.33 1.98 0.66 3 1 C1.515 5.95 1.515 5.95 0 11 C-0.66 10.67 -1.32 10.34 -2 10 C-1.79640869 10.81605713 -1.59281738 11.63211426 -1.38305664 12.47290039 C-0.90591981 16.86626932 -1.74224054 20.20705546 -2.87109375 24.43359375 C-3.0722731 25.22975601 -3.27345245 26.02591827 -3.48072815 26.84620667 C-4.12189073 29.37962657 -4.77825089 31.90873129 -5.4375 34.4375 C-6.09196168 36.96295498 -6.7427635 39.48912299 -7.38356018 42.01808167 C-7.78150481 43.5873672 -8.18727287 45.15469701 -8.60215759 46.71958923 C-12.53526987 62.17788124 -7.81115203 80.14763702 -0.08984375 93.78515625 C3.42850765 99.19749868 7.20085684 102.20128308 13 105 C13 105.66 13 106.32 13 107 C11.27054347 106.85764543 9.54144346 106.71095618 7.8125 106.5625 C6.36810547 106.44068359 6.36810547 106.44068359 4.89453125 106.31640625 C2.21350398 106.02333849 -0.3662986 105.57296246 -3 105 C-3.09667969 106.04414062 -3.19335938 107.08828125 -3.29296875 108.1640625 C-4.06972514 114.35906878 -5.75232353 120.34023253 -7.3125 126.375 C-9.42980855 134.71220804 -11.54556852 143.04579637 -13.4375 151.4375 C-13.60096924 152.14503418 -13.76443848 152.85256836 -13.93286133 153.58154297 C-15.11946109 158.75679435 -15.11946109 158.75679435 -15 164 C-13.38961643 166.32581178 -13.38961643 166.32581178 -11.125 168.5 C-7.32176512 172.51486162 -3.80930988 176.62431312 -0.4375 181 C0.00384277 181.56396484 0.44518555 182.12792969 0.89990234 182.70898438 C4 186.75376813 4 186.75376813 4 189 C2.35 188.34 0.7 187.68 -1 187 C-3.69299165 192.83077171 -5.47596706 198.75485138 -7.1875 204.9375 C-7.46013672 205.90751953 -7.73277344 206.87753906 -8.01367188 207.87695312 C-8.68003669 210.25014711 -9.3420278 212.62446817 -10 215 C-10.93979382 211.96143341 -10.99875808 209.79304528 -10.44140625 206.671875 C-10.30283203 205.87265625 -10.16425781 205.0734375 -10.02148438 204.25 C-9.87001953 203.425 -9.71855469 202.6 -9.5625 201.75 C-9.41490234 200.90953125 -9.26730469 200.0690625 -9.11523438 199.203125 C-8.7508064 197.13411456 -8.37637459 195.06687061 -8 193 C-8.26554687 194.04800781 -8.53109375 195.09601563 -8.8046875 196.17578125 C-9.16115944 197.5547648 -9.51794679 198.93366684 -9.875 200.3125 C-10.13603516 201.34793945 -10.13603516 201.34793945 -10.40234375 202.40429688 C-11.26698516 205.71875562 -12.08185702 208.12278553 -14 211 C-13.53752467 203.80729161 -12.74922933 196.9969173 -11 190 C-15.29 190 -19.58 190 -24 190 C-24.15275391 191.83884766 -24.15275391 191.83884766 -24.30859375 193.71484375 C-24.98542537 199.80632829 -26.5240299 205.64063945 -28.0625 211.5625 C-28.34416016 212.66658203 -28.62582031 213.77066406 -28.91601562 214.90820312 C-29.60529318 217.60689998 -30.30005702 220.3040535 -31 223 C-30.34 223 -29.68 223 -29 223 C-28.67 221.35 -28.34 219.7 -28 218 C-26.68 218 -25.36 218 -24 218 C-23.938125 218.94875 -23.87625 219.8975 -23.8125 220.875 C-23.544375 221.90625 -23.27625 222.9375 -23 224 C-20.53744315 225.45291273 -20.53744315 225.45291273 -18 226 C-17.67 224.02 -17.34 222.04 -17 220 C-15.35 220.33 -13.7 220.66 -12 221 C-12 222.98 -12 224.96 -12 227 C-10.02 227.33 -8.04 227.66 -6 228 C-6 226.35 -6 224.7 -6 223 C-4.35 223.33 -2.7 223.66 -1 224 C-1 225.98 -1 227.96 -1 230 C0.98 230.33 2.96 230.66 5 231 C5 229.35 5 227.7 5 226 C6.65 226.33 8.3 226.66 10 227 C10 228.65 10 230.3 10 232 C10.235979 230.99549805 10.47195801 229.99099609 10.71508789 228.95605469 C15.65795402 207.93089614 20.6892472 186.93563645 26 166 C22.7 165.67 19.4 165.34 16 165 C15.67 164.01 15.34 163.02 15 162 C15.60585937 161.92523437 16.21171875 161.85046875 16.8359375 161.7734375 C28.94275982 159.87359769 36.59141518 153.5086561 44 144 C45.80676111 141.38272923 47.41472402 138.76144848 49 136 C49.99 136.33 50.98 136.66 52 137 C52.13277344 138.05960938 52.26554687 139.11921875 52.40234375 140.2109375 C52.58053875 141.59898279 52.7589346 142.98700231 52.9375 144.375 C53.02451172 145.07367187 53.11152344 145.77234375 53.20117188 146.4921875 C53.66318128 150.36783575 53.66318128 150.36783575 55 154 C55.66 151.36 56.32 148.72 57 146 C58.32 146 59.64 146 61 146 C60.77183594 146.95261719 60.54367187 147.90523437 60.30859375 148.88671875 C60.02113281 150.14097656 59.73367188 151.39523437 59.4375 152.6875 C59.14746094 153.92886719 58.85742188 155.17023438 58.55859375 156.44921875 C57.79005728 161.33453097 58.30940885 164.54807513 61.1875 168.5625 C63.70746748 171.94456162 66.41444652 173.83199092 70 176 C70 176.33 70 176.66 70 177 C61.96428571 176.0625 61.96428571 176.0625 58 175 C57.76925781 176.06734375 57.53851562 177.1346875 57.30078125 178.234375 C56.97211545 179.73974974 56.64262035 181.24494356 56.3125 182.75 C56.05110229 183.9419397 56.05110229 183.9419397 55.78442383 185.15795898 C54.17840627 192.38398371 52.37825453 199.55532589 50.48754883 206.71191406 C49.9491212 208.79741127 49.46837455 210.89766126 49 213 C49.33 213.33 49.66 213.66 50 214 C52.05396726 213.59070014 52.05396726 213.59070014 54 213 C54.29003906 211.91332031 54.29003906 211.91332031 54.5859375 210.8046875 C58.30030488 197.01371951 58.30030488 197.01371951 61 192 C60.34 191.01 59.68 190.02 59 189 C60.11375 188.525625 61.2275 188.05125 62.375 187.5625 C64.26710994 186.74693537 66.15712709 185.92143645 68 185 C68.66 188.3 69.32 191.6 70 195 C69.01 195.33 68.02 195.66 67 196 C65.76722873 197.86022072 65.76722873 197.86022072 64.8125 200.0625 C64.29623047 201.16271484 64.29623047 201.16271484 63.76953125 202.28515625 C63.38861328 203.13400391 63.38861328 203.13400391 63 204 C62.01 204 61.02 204 60 204 C59.896875 204.70125 59.79375 205.4025 59.6875 206.125 C58.72556931 210.14761926 57.741333 213.68692987 54.31640625 216.26953125 C49.6755742 219 49.6755742 219 47 219 C46.58427734 220.87945313 46.58427734 220.87945313 46.16015625 222.796875 C45.79429904 224.44792292 45.42841207 226.09896424 45.0625 227.75 C44.88009766 228.575 44.69769531 229.4 44.50976562 230.25 C44.24389648 231.44882812 44.24389648 231.44882812 43.97265625 232.671875 C43.72914429 233.77160645 43.72914429 233.77160645 43.48071289 234.89355469 C43.01446454 236.93661753 42.51579351 238.96893762 42 241 C42.99 241 43.98 241 45 241 C45.33 239.35 45.66 237.7 46 236 C47.65 236.33 49.3 236.66 51 237 C49.515 242.94 49.515 242.94 48 249 C47.34 249 46.68 249 46 249 C45.86763443 250.0194017 45.73526886 251.03880341 45.59889221 252.08909607 C45.05110814 255.66625207 44.3132858 259.07084178 43.41772461 262.57446289 C43.09746811 263.83589615 42.77721161 265.09732941 42.44725037 266.39698792 C42.27693235 267.06103701 42.10661434 267.7250861 41.93113518 268.40925789 C41.39364598 270.50659583 40.86134999 272.60519101 40.33045959 274.70420837 C38.82141216 280.66741586 37.3043355 286.62856019 35.78100586 292.58813477 C34.84662252 296.24512894 33.91919773 299.90383136 32.99597359 303.56365776 C32.64421361 304.95213986 32.28978025 306.33994764 31.9325695 307.72703743 C31.4328427 309.66800762 30.9426703 311.61143004 30.45288086 313.55493164 C30.17165878 314.65744766 29.89043671 315.75996368 29.60069275 316.89588928 C28.66626683 321.72458334 28.34527946 325.64638607 30.8984375 329.9453125 C31.29546875 330.62980469 31.6925 331.31429688 32.1015625 332.01953125 C32.52179688 332.71433594 32.94203125 333.40914062 33.375 334.125 C34.19589886 335.52309338 35.01622955 336.92152055 35.8359375 338.3203125 C36.20251465 338.93148926 36.5690918 339.54266602 36.94677734 340.17236328 C38.0458988 342.07964729 39.03388719 344.02249636 40 346 C40.804375 345.979375 41.60875 345.95875 42.4375 345.9375 C45 346 45 346 46 347 C45.62056512 351.09789669 45.30694043 353.53958935 43 357 C44.65 357.99 46.3 358.98 48 360 C50.31 355.38 52.62 350.76 55 346 C53.35 345.34 51.7 344.68 50 344 C49.67 343.01 49.34 342.02 49 341 C49.66 340.01 50.32 339.02 51 338 C52.1446875 338.4640625 52.1446875 338.4640625 53.3125 338.9375 C55.18789677 339.67893593 57.08684652 340.36228217 59 341 C59.4640625 339.576875 59.4640625 339.576875 59.9375 338.125 C61 335 61 335 62 333 C63.98 333.66 65.96 334.32 68 335 C67.33333333 338.33333333 66.66666667 341.66666667 66 345 C67.65 345.99 69.3 346.98 71 348 C70.34 349.65 69.68 351.3 69 353 C63.25 351.125 63.25 351.125 61 350 C60.7525 350.66 60.505 351.32 60.25 352 C58.91940093 355.19343778 57.35226267 358.18998807 55.70703125 361.23046875 C55.47371094 361.81441406 55.24039062 362.39835937 55 363 C55.33 363.66 55.66 364.32 56 365 C57.32 363.02 58.64 361.04 60 359 C61.65 359.33 63.3 359.66 65 360 C65.75 361.625 65.75 361.625 66 364 C64.0625 367.25 64.0625 367.25 62 370 C67.41293678 372.50990924 72.88540184 374.75689012 78.47265625 376.84765625 C79.15401642 377.10264893 79.83537659 377.3576416 80.53738403 377.62036133 C81.9707272 378.15636918 83.40410823 378.69227582 84.83752441 379.22808838 C99.87130374 384.86606493 114.54365874 390.99490523 129 398 C129.92135742 398.44021484 130.84271484 398.88042969 131.79199219 399.33398438 C152.54149452 409.26995718 172.18463287 420.37236237 190 435 C190.9590625 435.77972168 190.9590625 435.77972168 191.9375 436.57519531 C204.15036299 446.5544558 214.16875217 457.22589034 222 471 C222 471.66 222 472.32 222 473 C-347.91 473 -917.82 473 -1505 473 C-1496.35865987 447.0759796 -1465.95756601 427.01584565 -1443.07177734 414.16455078 C-1441.61445958 413.34538914 -1440.16207139 412.51742612 -1438.71337891 411.68310547 C-1388.31018234 382.68993805 -1331.77656326 365.33424794 -1276 350 C-1275.3196167 349.81266296 -1274.6392334 349.62532593 -1273.93823242 349.43231201 C-1256.94398608 344.76381872 -1239.80507163 340.86577505 -1222.57394409 337.19337463 C-1218.75345969 336.37868021 -1214.93731923 335.54736851 -1211.125 334.6953125 C-1195.8368549 331.28539922 -1180.47093095 328.285158 -1165.08496094 325.35476685 C-1161.2764941 324.62912968 -1157.46927733 323.8984452 -1153.66552734 323.1484375 C-1109.91687786 314.52295281 -1065.55227932 308.64225507 -1021.29718018 303.28070068 C-1018.95903068 302.99499381 -1016.62177604 302.70278927 -1014.28466797 302.40869141 C-980.57745675 298.17389377 -946.75572215 295.19394412 -912.90960693 292.33135986 C-909.31790757 292.02694435 -905.72654977 291.71880001 -902.13525391 291.40966797 C-873.12161065 288.92893882 -844.08144834 287.29377244 -815 285.875 C-814.16817577 285.83426109 -813.33635155 285.79352219 -812.47932053 285.75154877 C-801.52027938 285.21591804 -790.56000974 284.71553082 -779.59805298 284.2434082 C-775.74733984 284.07727492 -771.89697286 283.90479609 -768.04672241 283.72827148 C-732.84553158 282.12405437 -697.6943203 281.67098748 -662.46002579 281.74225235 C-658.23876365 281.75063651 -654.01750251 281.75464957 -649.79623413 281.75839233 C-569.78967421 281.83749918 -489.97603858 283.84444652 -410.1544342 289.51071167 C-405.19559617 289.85898079 -400.23776272 290.16313944 -395.2734375 290.421875 C-344.03045446 293.12609886 -292.72189118 299.37631077 -241.8125 305.6875 C-240.97874847 305.79023224 -240.14499695 305.89296448 -239.28598022 305.99880981 C-231.19978757 306.99974185 -223.14495162 308.03515924 -215.14624023 309.61328125 C-209.70000914 310.59460648 -206.06293308 310.19803069 -201.109375 307.80078125 C-196.61486662 306.0945327 -191.73097576 305.6910414 -187 305 C-186.67 300.05 -186.34 295.1 -186 290 C-187.98 290 -189.96 290 -192 290 C-192 288.35 -192 286.7 -192 285 C-189.69 285 -187.38 285 -185 285 C-185 282.69 -185 280.38 -185 278 C-183.35 278 -181.7 278 -180 278 C-180 280.64 -180 283.28 -180 286 C-178.02 286 -176.04 286 -174 286 C-174 287.65 -174 289.3 -174 291 C-175.98 291 -177.96 291 -180 291 C-180.33 295.29 -180.66 299.58 -181 304 C-178.03 304 -175.06 304 -172 304 C-172.12375 301.958125 -172.12375 301.958125 -172.25 299.875 C-172.23517488 295.18284957 -171.366975 292.45557961 -168 289 C-164.20884893 288.19337211 -162.49981916 288.7447732 -159.0625 290.5 C-157 293 -157 293 -156.87890625 294.94140625 C-157.24890979 298.13048439 -157.98376503 300.95129508 -159 304 C-155.93601549 304.13530844 -152.87802874 304.2342407 -149.8125 304.3125 C-148.94818359 304.35439453 -148.08386719 304.39628906 -147.19335938 304.43945312 C-146.35224609 304.45556641 -145.51113281 304.47167969 -144.64453125 304.48828125 C-143.87471924 304.51446533 -143.10490723 304.54064941 -142.31176758 304.56762695 C-138.85348771 303.71848758 -137.37060001 301.60165132 -135 299 C-133.17393553 297.22834247 -131.34569697 295.45892384 -129.515625 293.69140625 C-127.95884642 292.17147107 -126.40444612 290.64914883 -124.85107422 289.12573242 C-123.78091053 288.08086232 -122.70632465 287.04050295 -121.62744141 286.00463867 C-120.05734754 284.49533648 -118.50410231 282.97031604 -116.953125 281.44140625 C-116.02661133 280.54107666 -115.10009766 279.64074707 -114.14550781 278.71313477 C-111.68711427 275.60433555 -111.03047296 273.94737163 -111 270 C-111.99064622 267.17738249 -111.99064622 267.17738249 -113.67578125 264.48828125 C-114.25650391 263.48345703 -114.83722656 262.47863281 -115.43554688 261.44335938 C-116.05494141 260.41017578 -116.67433594 259.37699219 -117.3125 258.3125 C-117.92029297 257.26771484 -118.52808594 256.22292969 -119.15429688 255.14648438 C-121.35877709 251.37188925 -123.57500863 247.63748706 -126 244 C-128.34205919 249.24175152 -130.25192871 254.53262809 -132 260 C-133.34583217 255.96250348 -132.15189741 252.96272713 -131.0625 249 C-129.53314038 243.58103354 -129.53314038 243.58103354 -129 238 C-131.18681484 243.63687318 -133.04256313 249.28098568 -134.69921875 255.09375 C-134.9391304 255.92588013 -135.17904205 256.75801025 -135.42622375 257.61535645 C-136.1829822 260.24271922 -136.93531315 262.87132521 -137.6875 265.5 C-138.20348245 267.29435529 -138.71975575 269.08862696 -139.23632812 270.8828125 C-140.49424795 275.25424951 -141.74820187 279.62680624 -143 284 C-143.33 284 -143.66 284 -144 284 C-143.49205275 275.40923128 -141.57538505 267.21044789 -139.5625 258.875 C-139.24616318 257.54310675 -138.93040466 256.21107602 -138.61523438 254.87890625 C-137.3764884 249.66726884 -136.12574006 244.46086378 -134.7890625 239.2734375 C-133.86573243 235.442989 -133.38348403 231.96611406 -134.57920837 228.15286255 C-135.11960065 225.38809676 -134.61932132 223.52946297 -133.92016602 220.80419922 C-133.65982071 219.76987762 -133.3994754 218.73555603 -133.13124084 217.66989136 C-132.84172043 216.55937408 -132.55220001 215.44885681 -132.25390625 214.3046875 C-131.96394272 213.1608963 -131.67397919 212.0171051 -131.37522888 210.83865356 C-130.44649527 207.18178156 -129.50499716 203.52834651 -128.5625 199.875 C-127.62600987 196.21393512 -126.69214946 192.55221831 -125.76048279 188.8899231 C-125.17957553 186.60983069 -124.5953947 184.33056942 -124.00770569 182.05221558 C-123.74420822 181.0241983 -123.48071075 179.99618103 -123.20922852 178.93701172 C-122.97526871 178.02974335 -122.7413089 177.12247498 -122.5002594 176.18771362 C-121.92569534 174.0490842 -121.92569534 174.0490842 -122 172 C-124.64 171.34 -127.28 170.68 -130 170 C-130 169.34 -130 168.68 -130 168 C-128.700625 167.79375 -127.40125 167.5875 -126.0625 167.375 C-114.64253843 164.76165456 -108.2328328 156.3492492 -102 147 C-101.34 147 -100.68 147 -100 147 C-99.77957031 148.52367187 -99.77957031 148.52367187 -99.5546875 150.078125 C-97.29409411 164.62676285 -97.29409411 164.62676285 -89.27734375 176.58984375 C-87.51328044 177.81030208 -87.51328044 177.81030208 -85 179 C-85 179.33 -85 179.66 -85 180 C-88.3 180 -91.6 180 -95 180 C-96.26601243 185.30130783 -97.52935906 190.60324132 -98.7902832 195.90576172 C-99.2192454 197.70801784 -99.64892442 199.51010351 -100.0793457 201.31201172 C-100.69933416 203.90807899 -101.31670785 206.50475648 -101.93359375 209.1015625 C-102.12529648 209.9017984 -102.31699921 210.7020343 -102.51451111 211.52651978 C-105.04767267 220.11037244 -105.04767267 220.11037244 -103.0625 228.375 C-102.68222656 229.06335938 -102.30195312 229.75171875 -101.91015625 230.4609375 C-101.60980469 230.96882812 -101.30945312 231.47671875 -101 232 C-97.80422608 220.14221871 -97.80422608 220.14221871 -96.1484375 207.99609375 C-95.97123999 205.61325355 -95.54258962 203.3253841 -95 201 C-93.35 201.33 -91.7 201.66 -90 202 C-90.33 203.98 -90.66 205.96 -91 208 C-89.02 208.33 -87.04 208.66 -85 209 C-85 207.35 -85 205.7 -85 204 C-83.35 204.33 -81.7 204.66 -80 205 C-80.33 206.98 -80.66 208.96 -81 211 C-78.69 211.33 -76.38 211.66 -74 212 C-73.87625 211.030625 -73.7525 210.06125 -73.625 209.0625 C-73.41875 208.051875 -73.2125 207.04125 -73 206 C-72.34 205.67 -71.68 205.34 -71 205 C-70.16863234 202.61937425 -70.16863234 202.61937425 -69.52734375 199.72265625 C-69.26759766 198.65208984 -69.00785156 197.58152344 -68.74023438 196.47851562 C-68.34288086 194.78758789 -68.34288086 194.78758789 -67.9375 193.0625 C-67.40688095 190.84458873 -66.87442056 188.62711692 -66.33984375 186.41015625 C-66.10644287 185.42152588 -65.87304199 184.43289551 -65.63256836 183.41430664 C-65 181 -65 181 -64 179 C-64.845625 178.79375 -65.69125 178.5875 -66.5625 178.375 C-70.75855209 176.69657917 -74.02686129 174.42361427 -77 171 C-77.69921875 168.8046875 -77.69921875 168.8046875 -78 167 C-80.31 167 -82.62 167 -85 167 C-85.33 166.34 -85.66 165.68 -86 165 C-85.18845459 164.77787842 -84.37690918 164.55575684 -83.54077148 164.3269043 C-68.04079752 160.09974193 -68.04079752 160.09974193 -56.08349609 150.20068359 C-53.33845785 143.61695396 -52.39422297 136.70271283 -51.515625 129.66162109 C-50.6577194 123.56935398 -49.09714579 117.65499358 -47.625 111.6875 C-47.13141121 109.56793459 -46.64396963 107.44692376 -46.1640625 105.32421875 C-45.86169678 103.9952356 -45.86169678 103.9952356 -45.55322266 102.6394043 C-44.9529785 99.77566219 -44.48102683 96.88616096 -44 94 C-48.29 93.01 -52.58 92.02 -57 91 C-57 90.01 -57 89.02 -57 88 C-56.32195312 87.91363281 -55.64390625 87.82726562 -54.9453125 87.73828125 C-42.75297967 85.8976105 -34.48278873 80.8622497 -26 72 C-25.47970215 71.49146484 -24.9594043 70.98292969 -24.42333984 70.45898438 C-11.67613813 57.70803679 -8.98010906 42.05670498 -5.64160156 24.98657227 C-5 22 -5 22 -4 20 C-5.36125 19.814375 -5.36125 19.814375 -6.75 19.625 C-10 19 -10 19 -11.875 18 C-15.14524349 16.46106189 -18.41464918 16.35853508 -22 16 C-20.4854577 12.14480141 -18.40825686 10.30881916 -15 8 C-12.33733189 7.26052326 -9.89145279 6.68987749 -7.1875 6.25 C-6.49462891 6.12496094 -5.80175781 5.99992188 -5.08789062 5.87109375 C-3.39426161 5.56740855 -1.69740219 5.28183282 0 5 C0 3.35 0 1.7 0 0 Z " fill="#EDE8D3" transform="translate(1506,644)"/>
<path d="M0 0 C72.6 0 145.2 0 220 0 C220 73.26 220 146.52 220 222 C165.41695835 222 116.95239686 204.23134306 76 168 C75.14148437 167.25234375 74.28296875 166.5046875 73.3984375 165.734375 C66.64432116 159.77359931 60.32582585 153.40635263 54 147 C53.17371094 146.20464844 52.34742188 145.40929687 51.49609375 144.58984375 C26.16471436 118.30705105 8.02841775 78.91726962 3 43 C2.67386719 42.05640625 2.34773438 41.1128125 2.01171875 40.140625 C-1.94726699 27.85095499 0 11.96218578 0 0 Z " fill="#EDE8D3" transform="translate(1508,0)"/>
<path d="M0 0 C29.86393353 -0.67872576 59.2150983 15.4531719 80.59179688 35.4921875 C82.97685528 37.81408546 85.29746363 40.18332482 87.59765625 42.58984375 C89.93975575 44.93955983 92.39448457 46.95218687 95 49 C95.763125 49.804375 96.52625 50.60875 97.3125 51.4375 C103.67945739 57.50831984 108.25708155 59.56218001 117.16796875 59.46875 C120.44348132 58.92659619 122.35677565 57.99618506 125 56 C126.19873855 54.23419884 126.19873855 54.23419884 126.8125 52.3125 C127.204375 51.219375 127.59625 50.12625 128 49 C128.66 49.33 129.32 49.66 130 50 C131.26978402 58.88848812 127.22957855 65.30481309 123.14648438 72.86962891 C108.98681567 99.18080205 101.69404124 127.39588238 110 157 C111.10191206 160.59178557 112.222375 164.17738838 113.46166992 167.72436523 C114.62101915 171.14735147 115.42511351 173.56756196 114 177 C114.515625 176.525625 115.03125 176.05125 115.5625 175.5625 C118.66782675 173.57190593 121.36632504 173.34939182 125 173 C125.33 171.35 125.66 169.7 126 168 C128.31 168.33 130.62 168.66 133 169 C133.66 167.35 134.32 165.7 135 164 C135.598125 164.33 136.19625 164.66 136.8125 165 C139.05386471 166.20787988 139.05386471 166.20787988 142 166 C142.66 164.68 143.32 163.36 144 162 C145.8871875 162.3403125 145.8871875 162.3403125 147.8125 162.6875 C151.14138709 163.20193197 151.14138709 163.20193197 154 161.5625 C154.33 161.046875 154.66 160.53125 155 160 C155.66 160.66 156.32 161.32 157 162 C159.08716864 161.98358525 159.08716864 161.98358525 161.375 161.5625 C164.59409811 161.05110482 166.87447847 161.02238253 170 162 C165.96476648 157.18876004 161.95532767 152.86757281 157 149 C160 148 160 148 162.99609375 149.22265625 C164.13175781 149.82980469 165.26742187 150.43695313 166.4375 151.0625 C167.57058594 151.65160156 168.70367187 152.24070312 169.87109375 152.84765625 C173.30845961 155.21218632 174.99453631 157.36848466 177 161 C177 161.66 177 162.32 177 163 C178.65 162.67 180.3 162.34 182 162 C179.61154398 155.5888812 176.65101243 152.06189855 171.1875 147.8125 C170.465625 147.214375 169.74375 146.61625 169 146 C169 145.34 169 144.68 169 144 C175.98995972 145.9715271 182.87226741 148.61294064 186.875 154.9375 C188.2306598 157.36486383 189.30532532 159.73555644 190.375 162.3125 C192.58211397 165.96272695 195.11125055 166.43085548 199 168 C202.70765515 171.50167431 203.72222749 175.12102733 205.14453125 179.8515625 C206.38560353 182.9684107 208.53368349 184.79329576 211 187 C212.09655844 190.28967533 211.90592971 191.66072146 211.25 195 C211.09015625 195.86625 210.9303125 196.7325 210.765625 197.625 C209.93142151 200.21273327 209.14216067 201.35551302 207 203 C206.34 203 205.68 203 205 203 C204.690625 202.1028125 204.690625 202.1028125 204.375 201.1875 C203.10779814 198.72167688 203.10779814 198.72167688 200.0625 197.6875 C196.04764397 195.47523239 195.53228619 193.21378701 194 189 C192.16116119 186.71271266 192.16116119 186.71271266 189.375 186.875 C188.59125 186.91625 187.8075 186.9575 187 187 C186.63982924 191.16703944 186.63982924 191.16703944 188.25 194.875 C190.21404988 196.36050506 190.21404988 196.36050506 194 196 C196 202.625 196 202.625 196 206 C194.68 206.33 193.36 206.66 192 207 C191.63390625 206.50371094 191.2678125 206.00742187 190.890625 205.49609375 C186.53611404 200.03221928 181.95735362 196.93942684 175.76953125 193.73828125 C172.68454622 191.80200715 170.95426417 190.06768654 169 187 C168.609375 184.54296875 168.609375 184.54296875 168.75 182.1875 C168.78609375 181.39730469 168.8221875 180.60710937 168.859375 179.79296875 C168.90578125 179.20128906 168.9521875 178.60960937 169 178 C168.75507813 178.64066406 168.51015625 179.28132812 168.2578125 179.94140625 C167 182 167 182 165.1171875 182.65234375 C164.37726563 182.74644531 163.63734375 182.84054687 162.875 182.9375 C156.66278228 184.07790712 152.24153314 186.87963081 147.6875 191.1875 C144.27479595 196.87534009 143.09936139 203.12925739 142.125 209.625 C141.36066733 214.33063071 139.85020295 217.40847285 136.92578125 221.1484375 C135.80281801 223.01515443 135.80281801 223.01515443 136.12109375 225.41015625 C137.18036719 228.53148197 138.65864224 230.51906303 140.75 233.0625 C141.76320313 234.31740234 141.76320313 234.31740234 142.796875 235.59765625 C144.94871864 238.07726187 144.94871864 238.07726187 147.640625 240.05859375 C151.16696162 242.96023167 151.86426945 244.78842623 152.37109375 249.3125 C152.39300781 250.529375 152.41492188 251.74625 152.4375 253 C152.47746094 254.216875 152.51742187 255.43375 152.55859375 256.6875 C152 260 152 260 149.59765625 262.375 C145.69634155 264.81552168 143.66190876 265.60432151 139 265 C136.07923944 263.29272089 133.41899017 261.36987362 131 259 C131 258.34 131 257.68 131 257 C135.75 257.875 135.75 257.875 138 259 C137.79375 257.7625 137.5875 256.525 137.375 255.25 C136.79946687 251.79680122 137.21810308 250.01970319 139 247 C136.9195946 245.84856175 134.83598003 244.70375888 132.75 243.5625 C132.16347656 243.23701172 131.57695312 242.91152344 130.97265625 242.57617188 C126.68073932 240.22810027 126.68073932 240.22810027 122 239 C119.44640587 240.22191212 117.14712838 241.46365583 114.75 242.9375 C113.77546875 243.51661133 113.77546875 243.51661133 112.78125 244.10742188 C111.18087871 245.06058418 109.5895258 246.02885924 108 247 C109.10164118 249.23044611 110.20621894 251.45935646 111.3125 253.6875 C111.62123047 254.31333984 111.92996094 254.93917969 112.24804688 255.58398438 C113.62508734 258.35256046 115.01661425 261.0257253 116.6953125 263.625 C119.05784045 267.92564969 118.79607976 272.25028044 118 277 C115.17990342 283.25950849 109.57367164 287.17930747 104.171875 291.140625 C101.21412835 293.67279659 100.16118412 295.54223188 99.734375 299.40234375 C99.76362494 304.14814583 100.05275424 307.61869703 102 312 C102.4375 315.125 102.4375 315.125 102 318 C98.95310089 321.1519646 95.63234128 321.28689309 91.4375 321.5 C87.4488459 321.39786465 86.422827 321.36382788 83.3125 318.6875 C82 316 82 316 82 313 C83.65 313.66 85.3 314.32 87 315 C86.52450066 312.37428665 86.04477433 309.7494696 85.5625 307.125 C85.42779297 306.37863281 85.29308594 305.63226563 85.15429688 304.86328125 C84.45463389 300.81466622 84.45463389 300.81466622 83 297 C82.93049459 295.45976004 82.91547643 293.91665012 82.9375 292.375 C82.94652344 291.55773437 82.95554687 290.74046875 82.96484375 289.8984375 C82.98224609 288.95871094 82.98224609 288.95871094 83 288 C83.94875 287.814375 84.8975 287.62875 85.875 287.4375 C86.90625 286.963125 87.9375 286.48875 89 286 C89.75407101 283.69342986 90.411438 281.354248 91 279 C92.50783708 276.78882678 94.17272914 274.97152908 96 273 C95.40832031 272.80664062 94.81664062 272.61328125 94.20703125 272.4140625 C93.02173828 272.02347656 93.02173828 272.02347656 91.8125 271.625 C90.64654297 271.24214844 90.64654297 271.24214844 89.45703125 270.8515625 C86.93632321 269.97793078 84.46935722 269.00879602 82 268 C71.78620181 282.0950415 69.12228928 295.98173444 71.26806641 313.14404297 C74.79999088 333.05170776 87.73357245 350.92002192 100.10546875 366.3671875 C118.55210493 389.41446887 137.91434008 414.94514989 136 446 C135.34 446 134.68 446 134 446 C133.80664062 445.15695312 133.61328125 444.31390625 133.4140625 443.4453125 C133.15367187 442.34960938 132.89328125 441.25390625 132.625 440.125 C132.36976563 439.03445313 132.11453125 437.94390625 131.8515625 436.8203125 C131.21093785 433.89591545 131.21093785 433.89591545 129 432 C128.690625 431.030625 128.38125 430.06125 128.0625 429.0625 C127.26130965 426.03408387 127.26130965 426.03408387 125.4375 424.4375 C124 423 124 423 123.5625 420.4375 C123.376875 419.633125 123.19125 418.82875 123 418 C122.360625 417.690625 121.72125 417.38125 121.0625 417.0625 C119 416 119 416 118 412.9375 C117.67 411.968125 117.34 410.99875 117 410 C116.34 409.835 115.68 409.67 115 409.5 C114.34 409.335 113.68 409.17 113 409 C111.75 405.9375 111.75 405.9375 111 403 C109.35 402.67 107.7 402.34 106 402 C105.34 400.02 104.68 398.04 104 396 C102.35 396 100.7 396 99 396 C98.67 394.02 98.34 392.04 98 390 C96.02 389.67 94.04 389.34 92 389 C92 387.02 92 385.04 92 383 C89.69 383 87.38 383 85 383 C84.01 379.535 84.01 379.535 83 376 C81.35 376 79.7 376 78 376 C77.67 374.02 77.34 372.04 77 370 C75.02 369.67 73.04 369.34 71 369 C71 367.02 71 365.04 71 363 C69.02 362.34 67.04 361.68 65 361 C65 358.36 65 355.72 65 353 C63.02 353 61.04 353 59 353 C59.33 350.36 59.66 347.72 60 345 C58.35 345 56.7 345 55 345 C53.90341064 341.71023192 54.20046862 340.28696233 55 337 C53.35 336.34 51.7 335.68 50 335 C50.33 334.05125 50.66 333.1025 51 332.125 C52.10159191 329.22937548 52.10159191 329.22937548 52 327 C50.35 326.67 48.7 326.34 47 326 C47.144375 325.443125 47.28875 324.88625 47.4375 324.3125 C48.02769128 321.88615805 48.523429 319.45093655 49 317 C47.35 316.67 45.7 316.34 44 316 C44.66 314.68 45.32 313.36 46 312 C46.66 312 47.32 312 48 312 C46.63016497 308.83884224 46.0109362 308.0072908 43 306 C43.4640625 305.13375 43.4640625 305.13375 43.9375 304.25 C44.92583364 302.15705816 45.5168613 300.25464725 46 298 C44.68 297.67 43.36 297.34 42 297 C42 296.01 42 295.02 42 294 C42.99 293.34 43.98 292.68 45 292 C45 291.01 45 290.02 45 289 C44.01 288.34 43.02 287.68 42 287 C42.66 285.68 43.32 284.36 44 283 C44.66 283 45.32 283 46 283 C45.690625 282.2575 45.38125 281.515 45.0625 280.75 C44.1905075 278.49307824 43.52332993 276.3549847 43 274 C44.32 273.67 45.64 273.34 47 273 C46.505 271.88625 46.505 271.88625 46 270.75 C45 268 45 268 45 264 C45.99 264 46.98 264 48 264 C47.67 261.03 47.34 258.06 47 255 C47.99 254.34 48.98 253.68 50 253 C50 251.845 50 250.69 50 249.5 C50 248.345 50 247.19 50 246 C50.99 245.34 51.98 244.68 53 244 C53.25015873 240.41642759 53.25015873 240.41642759 53 237 C53.639375 236.814375 54.27875 236.62875 54.9375 236.4375 C55.618125 235.963125 56.29875 235.48875 57 235 C57.165 233.845 57.33 232.69 57.5 231.5 C57.665 230.345 57.83 229.19 58 228 C59.9375 226.9375 59.9375 226.9375 62 226 C62.67939174 224.00428677 63.34561559 222.00405227 64 220 C65.31337396 218.9739266 66.64664105 217.97272675 68 217 C68.4640625 215.824375 68.4640625 215.824375 68.9375 214.625 C70.30440304 211.24794543 72.34640023 209.45943393 75 207 C75.556875 206.401875 76.11375 205.80375 76.6875 205.1875 C78 204 78 204 80 204 C80.2475 203.401875 80.495 202.80375 80.75 202.1875 C82.16444091 199.71222841 83.72860188 198.66569196 86 197 C86 196.34 86 195.68 86 195 C63.66974244 185.82440215 40.20716166 182.05070782 16.796875 190.1015625 C14 191 14 191 10 191 C9.87625 190.175 9.7525 189.35 9.625 188.5 C6.2276872 169.47504834 -3.75811954 153.87802405 -19 142 C-23.50816094 139.05162968 -28.22908725 136.49341134 -33 134 C-32.30436602 130.14056915 -31.20232772 126.77266799 -29.71875 123.16015625 C-25.39639605 110.16960334 -27.1472263 95.07597612 -33 83 C-37.14329988 75.03211561 -42.74736638 67.12631681 -51 63 C-50.47731534 60.23723823 -49.89130413 57.6739124 -49 55 C-48.22690558 46.62976624 -50.0045347 40.37624362 -54 33 C-47.25995657 30.84329343 -41.13022747 30.66152352 -34.05126953 30.68432617 C-32.03230872 30.68745001 -30.0148702 30.66411034 -27.99609375 30.63867188 C-14.91014469 30.63227601 -2.75418093 32.80744876 9.4375 37.6875 C10.77542603 38.2129541 10.77542603 38.2129541 12.14038086 38.74902344 C25.23992108 43.98930867 37.26333237 50.56314717 49.26391602 57.96386719 C50.06756592 58.45790039 50.87121582 58.95193359 51.69921875 59.4609375 C52.40908936 59.90228027 53.11895996 60.34362305 53.8503418 60.79833984 C58.31687056 63.29513196 61.87813746 64.27613195 67 64.25 C68.010625 64.25515625 69.02125 64.2603125 70.0625 64.265625 C73.09688383 63.99123923 75.239828 63.24953733 78 62 C78.99 61.67 79.98 61.34 81 61 C82.10636395 58.60931266 82.10636395 58.60931266 83 56 C83.66 55.01 84.32 54.02 85 53 C85.81606695 64.11664536 83.72218904 73.44547635 80.57250977 84.02392578 C80.38358154 84.67603027 80.19465332 85.32813477 80 86 C79.8146167 86.60134766 79.6292334 87.20269531 79.43823242 87.82226562 C78.428829 92.83835392 78.77360351 98.09956178 78.75976562 103.20458984 C78.75018706 105.33342521 78.71920366 107.46124 78.6875 109.58984375 C78.58765227 122.22099552 80.78116777 133.8582438 85.3125 145.6875 C85.61881348 146.49711182 85.92512695 147.30672363 86.24072266 148.14086914 C89.85033558 157.4714662 96.42630961 174.21315481 106 179 C105.45472656 178.33097656 104.90945313 177.66195312 104.34765625 176.97265625 C87.33901811 155.31208289 79.98100367 131.79464246 79.6875 104.4375 C79.66961426 103.31351807 79.65172852 102.18953613 79.63330078 101.03149414 C79.64152454 92.976321 80.92468388 85.76539072 83 78 C83.39211713 76.43168556 83.78177541 74.86275241 84.16796875 73.29296875 C84.67930431 71.23026038 85.19235103 69.16874856 85.72460938 67.11132812 C87.17880116 61.16542427 88.35404416 54.70808833 85.5 49 C84.7575 47.515 84.7575 47.515 84 46 C83.98582031 46.58007812 83.97164062 47.16015625 83.95703125 47.7578125 C83.58462911 53.85715559 82.49948812 56.80729516 78 61 C73.38102092 63.74642 68.14832457 63.71865611 63.01171875 62.54614258 C56.3185277 60.44349111 50.70099162 57.0344955 44.75 53.375 C36.89967014 48.67124974 29.05624011 44.38404569 20.625 40.8125 C19.8009668 40.46300293 18.97693359 40.11350586 18.12792969 39.75341797 C13.20139367 37.7349206 8.24691632 36.11592067 3.11157227 34.71142578 C0.2329235 33.74155845 -1.36815275 32.56433139 -3 30 C-2.89353969 26.5932701 -1.02620691 24.61718392 1 22 C2.15243755 18.54268736 2.16824837 15.76740787 2.1875 12.125 C2.20167969 10.91070312 2.21585938 9.69640625 2.23046875 8.4453125 C2.01047255 5.15655579 1.41715618 2.94634052 0 0 Z " fill="#EDE8D3" transform="translate(242,112)"/>
<path d="M0 0 C1.03769531 0.37382813 2.07539063 0.74765625 3.14453125 1.1328125 C24.76773829 9.5156219 40.67531554 23.97550897 52 44 C53.57914185 43.9685791 53.57914185 43.9685791 55.19018555 43.93652344 C59.15797913 43.86321679 63.12571511 43.81787676 67.09399414 43.78027344 C68.79982625 43.76036163 70.50559198 43.73322187 72.21118164 43.69824219 C92.78439695 43.28738209 92.78439695 43.28738209 102 48 C104.28227991 50.44779455 104.97161576 51.37554681 105.125 54.75 C101.63807748 64.82333174 91.76806411 69.95555286 83 75 C82.26007813 75.42684082 81.52015625 75.85368164 80.7578125 76.29345703 C59.71878501 88.24149278 36.86090675 96.2831271 14 104 C14 107.25972402 14.38634183 107.96858882 16.09765625 110.60546875 C16.56171875 111.32927734 17.02578125 112.05308594 17.50390625 112.79882812 C18.27541016 113.9812207 18.27541016 113.9812207 19.0625 115.1875 C20.1687433 116.90965896 21.27417386 118.63234018 22.37890625 120.35546875 C22.96816895 121.27118652 23.55743164 122.1869043 24.16455078 123.13037109 C27.31811109 128.06079779 30.40580101 133.03219098 33.5 138 C37.980298 145.17924538 42.47423129 152.34933141 47 159.5 C54.69913904 171.66726188 62.31258021 183.88808236 69.93652344 196.10253906 C71.85311812 199.17277445 73.77024563 202.24267653 75.6875 205.3125 C76.3050415 206.30193604 76.92258301 207.29137207 77.55883789 208.31079102 C80.52423111 213.05754082 83.50038224 217.79680128 86.50390625 222.51953125 C87.05280518 223.38344482 87.6017041 224.2473584 88.16723633 225.13745117 C89.18660198 226.7395361 90.20838782 228.340085 91.2331543 229.9387207 C93.7318001 233.86554405 96.0051071 237.78412634 98 242 C97.01 242.33 96.02 242.66 95 243 C93.78140664 241.07056051 92.56281623 239.14111915 91.34423828 237.21166992 C90.26453447 235.50216645 89.18478036 233.79269474 88.10498047 232.08325195 C85.40999007 227.81663778 82.71557308 223.54966617 80.0234375 219.28125 C74.69996563 210.84284711 69.35987845 202.41533188 64 194 C58.13367474 184.78951614 52.29326982 175.56300997 46.46777344 166.32666016 C43.98016643 162.38339755 41.48993586 158.44179232 39 154.5 C37.99998776 152.9166744 36.99998775 151.33334107 36 149.75 C35.505 148.96625 35.01 148.1825 34.5 147.375 C26 133.91666667 17.5 120.45833333 9 107 C2.49489994 107.55348699 -3.33099099 108.78431617 -9.5625 110.6875 C-17.68902531 113.08699189 -25.84500689 115.30768652 -34.0625 117.375 C-35.09125244 117.63756592 -36.12000488 117.90013184 -37.17993164 118.1706543 C-38.14278076 118.41082275 -39.10562988 118.65099121 -40.09765625 118.8984375 C-41.37394897 119.21820557 -41.37394897 119.21820557 -42.67602539 119.54443359 C-45 120 -45 120 -49 120 C-48.99228876 121.28023261 -48.99228876 121.28023261 -48.98442173 122.58632851 C-48.95612382 130.91738991 -49.12114978 139.22015721 -49.44311523 147.54443359 C-49.49027679 148.81800217 -49.53743835 150.09157074 -49.58602905 151.4037323 C-49.71384435 154.85230845 -49.84490258 158.30075392 -49.9767139 161.74917936 C-50.11538282 165.38908947 -50.25134002 169.02910109 -50.38771057 172.6690979 C-50.61706498 178.77979477 -50.84852987 184.89040887 -51.08129883 191.00097656 C-51.34876065 198.02292395 -51.61294948 205.04498861 -51.87535518 212.06712663 C-52.12978009 218.87378729 -52.38648395 225.68036021 -52.64421272 232.48689651 C-52.7529547 235.35962961 -52.86094378 238.23238945 -52.96829033 241.10517502 C-54.04112056 269.77389984 -54.04112056 269.77389984 -55 283 C-55.99 283 -56.98 283 -58 283 C-58.19259277 271.22168295 -57.61926944 259.46174571 -57.16015625 247.6953125 C-57.072651 245.40779445 -56.98537 243.12026782 -56.89830017 240.83273315 C-56.66884023 234.81744876 -56.43678654 228.80226741 -56.20404053 222.78710938 C-55.83529579 213.24649514 -55.47034124 203.70573498 -55.10551071 194.1649704 C-54.97341495 190.71512697 -54.84067024 187.26530888 -54.70791626 183.81549072 C-54.34461414 174.339578 -53.9844108 164.86385706 -53.68310547 155.38574219 C-53.66061328 154.68157354 -53.63812109 153.9774049 -53.61494732 153.25189781 C-53.51787062 150.1856407 -53.42484471 147.11934124 -53.33839417 144.05276489 C-53.11535184 136.68023103 -52.62144058 129.34946564 -52 122 C-52.9163472 122.18318283 -53.8326944 122.36636566 -54.77680969 122.55509949 C-82.40601522 128.06994317 -82.40601522 128.06994317 -94.6875 129.8125 C-95.85671997 129.97939331 -95.85671997 129.97939331 -97.04956055 130.1496582 C-107.85533615 131.60983546 -118.6430403 132.23023006 -129.5456543 132.29516602 C-130.89211491 132.30673831 -132.23852782 132.32727255 -133.5847168 132.35668945 C-142.16635636 132.54281734 -150.38899838 132.42804679 -158 128 C-160.61200051 125.20687149 -161.00890265 124.49131525 -160.9375 120.55078125 C-158.56528575 111.56601978 -149.41481768 106.29600609 -141.8125 101.8125 C-134.10284973 97.39207042 -126.1312212 93.57442329 -118 90 C-117.96132812 88.20369141 -117.96132812 88.20369141 -117.921875 86.37109375 C-117.10819604 60.09740022 -107.73701041 36.86699486 -88.5 18.5 C-64.55740999 -2.18434764 -30.37431496 -11.43239899 0 0 Z " fill="#EDE8D3" transform="translate(222,664)"/>
<path d="M0 0 C20.82328243 -0.78113004 40.00625642 7.69069969 56.33203125 20.2265625 C57.66234375 21.185625 57.66234375 21.185625 59.01953125 22.1640625 C65.51856832 27.96050097 70.55969508 34.98536925 75.33203125 42.2265625 C75.9353125 43.06832031 76.53859375 43.91007813 77.16015625 44.77734375 C78.33203125 47.2265625 78.33203125 47.2265625 77.796875 49.3359375 C60.75256019 71.33446649 9.31922535 79.08848291 -16.66796875 85.2265625 C-17.71275391 85.47631836 -18.75753906 85.72607422 -19.83398438 85.98339844 C-63.35259253 96.28442158 -63.35259253 96.28442158 -83.66796875 94.2265625 C-84.65796875 93.5665625 -85.64796875 92.9065625 -86.66796875 92.2265625 C-89.56696993 71.02406366 -81.24704784 49.87677765 -68.66796875 33.2265625 C-55.26655681 15.73027469 -34.28659114 4.00260388 -12.62890625 0.7734375 C-8.42603262 0.34295449 -4.21555285 0.26038559 0 0 Z " fill="#FEFBEF" transform="translate(193.66796875,661.7734375)"/>
<path d="M0 0 C5.94 0 11.88 0 18 0 C18.03738281 1.34449219 18.07476563 2.68898437 18.11328125 4.07421875 C18.5494917 17.22644313 19.71773124 30.03929172 22 43 C22.22333008 44.2986499 22.22333008 44.2986499 22.45117188 45.62353516 C26.63902176 69.16498593 34.32393014 93.57267669 45 115 C45.44907715 115.91241455 45.44907715 115.91241455 45.90722656 116.84326172 C55.68237708 136.54013946 68.79627539 154.17697907 84 170 C84.48758789 170.50950195 84.97517578 171.01900391 85.47753906 171.54394531 C92.25419812 178.58549007 99.3293793 184.92742528 107 191 C108.85544713 192.54012535 110.7096133 194.08179521 112.5625 195.625 C139.52134376 217.57882636 171.7143867 230.65198595 205.12548828 239.25683594 C206.90072171 239.71579726 208.67324466 240.18558335 210.44091797 240.67285156 C226.32594709 245.03751665 242.64403008 244.79819901 259 245 C259 250.28 259 255.56 259 261 C236.23423893 261.92293626 211.81332544 259.86715801 190 253 C189.06542969 252.72091797 188.13085938 252.44183594 187.16796875 252.15429688 C150.5441882 241.15813095 118.79165647 222.93148908 90 198 C89.38471436 197.47519043 88.76942871 196.95038086 88.13549805 196.40966797 C82.95849014 191.95475165 78.11266565 187.23093165 73.3125 182.375 C72.57966797 181.63765625 71.84683594 180.9003125 71.09179688 180.140625 C69.67803933 178.71794383 68.26593348 177.29361887 66.85571289 175.86743164 C65.36033288 174.36260837 63.84699011 172.87564679 62.328125 171.39453125 C38.80051952 147.19583635 22.20884293 114.96364686 11.75073242 83.18798828 C11.04086552 81.11910139 10.24913945 79.10323713 9.43359375 77.07421875 C7.6350134 72.33940888 6.80480675 67.47541403 5.9375 62.5 C4.62491205 55.0770246 4.62491205 55.0770246 2.94921875 47.73046875 C-1.03227135 32.08304882 -0.19355261 16.01110202 0 0 Z " fill="#EDE8D3" transform="translate(1469,0)"/>
<path d="M0 0 C4.3747404 1.34238609 7.06606707 2.38900562 10 6 C10 6.66 10 7.32 10 8 C10.721875 8.28875 11.44375 8.5775 12.1875 8.875 C13.81970256 9.52788102 15.44216361 10.2091774 17.03125 10.9609375 C22.19351908 12.76773168 27.67386559 13.3695891 33.07617188 14.1484375 C42.42174316 15.72948038 48.50431651 20.40302576 54 28 C58.7407652 37.24449215 57.56369522 48.31747252 55 58 C54.608125 57.46375 54.21625 56.9275 53.8125 56.375 C53.214375 55.59125 52.61625 54.8075 52 54 C49.75 50.9375 49.75 50.9375 48.671875 49.46484375 C42.95974512 44.46005706 36.38503703 44.56124272 29.22851562 44.47265625 C24.43664147 44.32601024 21.22455802 43.50937411 17 41 C18.65 42.98 20.3 44.96 22 47 C15.21424568 47.76499109 10.49054694 47.14913694 4.984375 42.94140625 C-0.29818318 37.77323418 -2.20455932 32.46024486 -2.38061523 25.09155273 C-2.36889491 20.856438 -2.34455011 17.03365034 -1 13 C-0.77548542 10.77425665 -0.59217122 8.54418481 -0.4375 6.3125 C-0.35371094 5.13300781 -0.26992188 3.95351563 -0.18359375 2.73828125 C-0.12300781 1.83464844 -0.06242187 0.93101562 0 0 Z " fill="#EDE8D4" transform="translate(444,319)"/>
<path d="M0 0 C3.37065219 2.0972947 5.86083829 4.12685019 7 8 C7.14354378 11.22973512 6.67932236 13.15522664 4.63671875 15.6953125 C-1.31448231 21.37890066 -8.64274776 24.53918727 -16 28 C-21.30431419 30.53346284 -26.30402855 33.32671115 -31.25 36.5 C-37.66185694 40.55785352 -44.1218848 44.52750497 -50.625 48.4375 C-51.88618652 49.19933594 -51.88618652 49.19933594 -53.17285156 49.9765625 C-67.267431 58.4321767 -67.267431 58.4321767 -74 57 C-77.35824716 55.23746423 -79.51000181 53.00578576 -81.1875 49.5625 C-80.90929219 45.76032666 -78.58299244 43.60644655 -76 41 C-73.36328125 39.12109375 -73.36328125 39.12109375 -70.3125 37.4375 C-69.73072998 37.11217285 -69.14895996 36.7868457 -68.54956055 36.45166016 C-64.42294217 34.18822723 -60.21243163 32.12404331 -55.96875 30.08984375 C-43.45957781 24.06659868 -32.13067879 17.80548452 -21.21875 9.19140625 C-7.53760382 -1.47796153 -7.53760382 -1.47796153 0 0 Z " fill="#EDE8D3" transform="translate(1473,139)"/>
<path d="M0 0 C2.5625 1 2.5625 1 4 3 C5.54184895 11.69042134 1.57040268 17.79921261 -3 25 C-4.21086319 26.63868424 -5.44002845 28.26400949 -6.6875 29.875 C-10.702036 35.19426019 -13.66244635 40.88392409 -16.6875 46.8125 C-20.91195185 55.06117348 -25.24535464 63.22042751 -29.875 71.25 C-30.39795654 72.18432861 -30.92091309 73.11865723 -31.4597168 74.08129883 C-34.32084003 78.97624903 -36.34562752 82.19459574 -42 84 C-45.93538288 84.77727313 -49.10332785 84.56862136 -52.5625 82.375 C-54.53966469 79.10838007 -53.88663306 77.6812657 -53 74 C-51.97004376 71.48013446 -50.91021313 69.10851419 -49.6875 66.6875 C-49.34066162 65.99454834 -48.99382324 65.30159668 -48.63647461 64.58764648 C-45.86408039 59.24855375 -42.60801827 54.4137889 -39.0625 49.5625 C-30.56102833 37.91208855 -24.30096349 25.38354767 -18.82519531 12.06274414 C-14.72391265 2.3604395 -10.77477678 -2.06691988 0 0 Z " fill="#EDE8D3" transform="translate(1584,249)"/>
<path d="M0 0 C3.54006562 2.63769596 4.79985454 4.21206362 6.1875 8.375 C6.49773681 13.76783979 5.6866165 18.34462674 4.3125 23.5 C4.13847656 24.18964844 3.96445313 24.87929688 3.78515625 25.58984375 C2.82378947 29.31424986 1.61851146 32.81244008 0.1875 36.375 C-0.20814517 38.05325957 -0.56309493 39.74167999 -0.875 41.4375 C-1.43824113 44.45852059 -2.06574752 47.38799007 -2.8125 50.375 C0.1575 50.705 3.1275 51.035 6.1875 51.375 C6.5175 52.365 6.8475 53.355 7.1875 54.375 C2.77719376 53.52494097 -1.42240899 52.67908454 -5.5 50.75 C-8.94408961 49.3203779 -11.1381793 49.20798542 -14.8125 49.375 C-16.2975 48.88 -16.2975 48.88 -17.8125 48.375 C-19.42644105 47.9875212 -21.04414685 47.6155951 -22.6640625 47.25390625 C-23.59734375 47.04056641 -24.530625 46.82722656 -25.4921875 46.60742188 C-27.46231999 46.15930818 -29.433697 45.71663264 -31.40625 45.27929688 C-32.33695313 45.06466797 -33.26765625 44.85003906 -34.2265625 44.62890625 C-35.0820166 44.43627197 -35.9374707 44.2436377 -36.81884766 44.04516602 C-38.8125 43.375 -38.8125 43.375 -39.8125 41.375 C-32.1875 42.25 -32.1875 42.25 -28.8125 43.375 C-28.67972656 42.60414063 -28.54695313 41.83328125 -28.41015625 41.0390625 C-28.23355469 40.03617188 -28.05695313 39.03328125 -27.875 38 C-27.61396484 36.50339844 -27.61396484 36.50339844 -27.34765625 34.9765625 C-26.8125 32.375 -26.8125 32.375 -25.8125 30.375 C-22.8425 30.705 -19.8725 31.035 -16.8125 31.375 C-16.8125 29.395 -16.8125 27.415 -16.8125 25.375 C-17.1425 27.025 -17.4725 28.675 -17.8125 30.375 C-18.8025 30.375 -19.7925 30.375 -20.8125 30.375 C-21.1425 29.715 -21.4725 29.055 -21.8125 28.375 C-22.8025 28.705 -23.7925 29.035 -24.8125 29.375 C-24.10291964 19.08608474 -22.04035417 8.77335385 -15.8125 0.375 C-11.27726405 -3.18839967 -4.88776607 -2.48530478 0 0 Z " fill="#FDFAED" transform="translate(1508.8125,924.625)"/>
<path d="M0 0 C3.96216308 2.04767252 6.58143255 3.96988734 8.171875 8.2734375 C8.78711316 15.35072992 7.67029322 21.81739347 5.921875 28.6484375 C5.69733643 29.55875732 5.47279785 30.46907715 5.24145508 31.40698242 C3.54154047 38.16397774 1.53289628 44.71504506 -0.828125 51.2734375 C2.471875 51.9334375 5.771875 52.5934375 9.171875 53.2734375 C9.171875 53.9334375 9.171875 54.5934375 9.171875 55.2734375 C3.32567735 54.66957372 -2.1090132 53.5310708 -7.765625 51.9609375 C-15.0032482 49.99804652 -22.2576595 48.18445857 -29.57202148 46.5300293 C-34.62741878 45.37379061 -34.62741878 45.37379061 -36.828125 44.2734375 C-36.828125 43.6134375 -36.828125 42.9534375 -36.828125 42.2734375 C-33.198125 42.9334375 -29.568125 43.5934375 -25.828125 44.2734375 C-25.704375 43.2215625 -25.580625 42.1696875 -25.453125 41.0859375 C-24.91671718 37.81384979 -24.18932465 35.26807674 -22.828125 32.2734375 C-19.363125 32.7684375 -19.363125 32.7684375 -15.828125 33.2734375 C-16.158125 36.2434375 -16.488125 39.2134375 -16.828125 42.2734375 C-16.168125 39.3034375 -15.508125 36.3334375 -14.828125 33.2734375 C-13.6525 33.799375 -13.6525 33.799375 -12.453125 34.3359375 C-11.586875 34.6453125 -10.720625 34.9546875 -9.828125 35.2734375 C-8.838125 34.7784375 -8.838125 34.7784375 -7.828125 34.2734375 C-8.323125 31.7984375 -8.323125 31.7984375 -8.828125 29.2734375 C-9.488125 30.5934375 -10.148125 31.9134375 -10.828125 33.2734375 C-12.313125 32.7784375 -12.313125 32.7784375 -13.828125 32.2734375 C-13.828125 30.2934375 -13.828125 28.3134375 -13.828125 26.2734375 C-14.488125 28.2534375 -15.148125 30.2334375 -15.828125 32.2734375 C-17.313125 31.7784375 -17.313125 31.7784375 -18.828125 31.2734375 C-18.828125 29.6234375 -18.828125 27.9734375 -18.828125 26.2734375 C-19.158125 27.9234375 -19.488125 29.5734375 -19.828125 31.2734375 C-20.818125 30.6134375 -21.808125 29.9534375 -22.828125 29.2734375 C-22.09867672 25.89366047 -21.34092794 22.52082944 -20.578125 19.1484375 C-20.37316406 18.19710937 -20.16820312 17.24578125 -19.95703125 16.265625 C-18.41592006 9.54077615 -16.98626001 4.33309077 -10.953125 0.3984375 C-6.95550311 -1.04070638 -4.04264571 -1.60669253 0 0 Z " fill="#FDF9EC" transform="translate(1439.828125,906.7265625)"/>
<path d="M0 0 C31.68 0 63.36 0 96 0 C95.67 2.31 95.34 4.62 95 7 C87.23055437 12.73459082 74.99524627 10.18916865 65.875 9.4375 C59.95697523 8.99686113 54.23373924 9.09477717 48.3125 9.4375 C39.56346182 9.92433173 30.82485544 10.20871959 22.0625 10.3125 C20.85956299 10.34206787 19.65662598 10.37163574 18.41723633 10.40209961 C11.9807644 10.44635064 7.83893984 10.444595 3 6 C0 2.6 0 2.6 0 0 Z " fill="#EDE8D3" transform="translate(1343,0)"/>
<path d="M0 0 C0 31.68 0 63.36 0 96 C-2.31 95.67 -4.62 95.34 -7 95 C-11.04948564 85.3824716 -10.52763801 75.80865546 -9.5 65.5625 C-8.25929661 52.53511444 -8.42778902 39.02078472 -9.76953125 26.01171875 C-10.09031508 21.81978084 -10.15439923 17.64047 -10.1875 13.4375 C-10.20039062 12.65004395 -10.21328125 11.86258789 -10.2265625 11.05126953 C-10.23332117 7.17094594 -10.20179159 5.30268738 -8 2 C-5.0821948 0.57850516 -3.26795703 0 0 0 Z " fill="#EEE9D4" transform="translate(1728,288)"/>
<path d="M0 0 C1.6484375 1.09375 1.6484375 1.09375 3.8984375 3.09375 C4.5584375 1.77375 5.2184375 0.45375 5.8984375 -0.90625 C9.2734375 -1.03125 9.2734375 -1.03125 12.8984375 -0.90625 C13.5584375 -0.24625 14.2184375 0.41375 14.8984375 1.09375 C14.6484375 4.15625 14.6484375 4.15625 13.8984375 7.09375 C11.12743356 8.47925197 8.9649669 8.2814967 5.8984375 8.09375 C4.9084375 7.43375 3.9184375 6.77375 2.8984375 6.09375 C2.805625 7.95 2.805625 7.95 2.7109375 9.84375 C2.05620671 16.0636925 -0.5176162 21.4586494 -3.1015625 27.09375 C-4.0915625 27.09375 -5.0815625 27.09375 -6.1015625 27.09375 C-6.1015625 25.77375 -6.1015625 24.45375 -6.1015625 23.09375 C-5.6478125 22.68125 -5.1940625 22.26875 -4.7265625 21.84375 C-2.12561895 19.04273387 -1.88971621 15.7920097 -1.1015625 12.09375 C-8.48370386 14.25748109 -12.41346364 17.41243498 -16.25 24.09375 C-17.55040417 27.14791025 -17.33952706 29.82173736 -17.1015625 33.09375 C-16.4415625 34.08375 -15.7815625 35.07375 -15.1015625 36.09375 C-15.1015625 37.41375 -15.1015625 38.73375 -15.1015625 40.09375 C-15.7615625 40.09375 -16.4215625 40.09375 -17.1015625 40.09375 C-17.2046875 39.51625 -17.3078125 38.93875 -17.4140625 38.34375 C-17.96240204 36.02250706 -17.96240204 36.02250706 -19.6015625 34.3125 C-21.46197192 31.5606444 -21.59306354 29.63653254 -21.7890625 26.34375 C-21.88767578 24.86648438 -21.88767578 24.86648438 -21.98828125 23.359375 C-22.04435547 22.23789062 -22.04435547 22.23789062 -22.1015625 21.09375 C-23.88566052 24.15621747 -24.33036271 26.31454273 -24.2265625 29.84375 C-24.20851562 30.64296875 -24.19046875 31.4421875 -24.171875 32.265625 C-24.13707031 33.17054688 -24.13707031 33.17054688 -24.1015625 34.09375 C-26.5765625 34.58875 -26.5765625 34.58875 -29.1015625 35.09375 C-29.1015625 34.43375 -29.1015625 33.77375 -29.1015625 33.09375 C-28.1115625 33.09375 -27.1215625 33.09375 -26.1015625 33.09375 C-26.4315625 32.43375 -26.7615625 31.77375 -27.1015625 31.09375 C-27.92028792 24.80126038 -27.37594687 20.16472257 -23.65234375 14.97265625 C-19.05062756 9.39727719 -14.5581154 5.38790964 -8.1015625 2.09375 C-13.46133876 1.58329512 -15.7947409 3.0311213 -20.1015625 6.09375 C-21.0915625 6.09375 -22.0815625 6.09375 -23.1015625 6.09375 C-22.1015625 3.09375 -22.1015625 3.09375 -18.7890625 0.90625 C-13.08108281 -1.75747386 -5.89100818 -2.5403604 0 0 Z " fill="#EDE9D4" transform="translate(230.1015625,834.90625)"/>
<path d="M0 0 C3.85358472 -0.1753878 7.70613439 -0.28121462 11.5625 -0.375 C13.19155273 -0.45041016 13.19155273 -0.45041016 14.85351562 -0.52734375 C20.20809687 -0.62499569 23.94158091 -0.6925627 28.12109375 2.90625 C29.09463999 3.9243779 30.05610306 4.95432545 31 6 C31.825 6.61875 32.65 7.2375 33.5 7.875 C35 10 35 10 35.0625 13.9375 C34.26323041 18.22158502 32.55113088 20.39583736 29 23 C23.83544304 24.41772152 23.83544304 24.41772152 21 23 C21 22.34 21 21.68 21 21 C22.65 20.67 24.3 20.34 26 20 C25.09578335 17.67449821 25.09578335 17.67449821 22.0625 16.625 C18.79637967 14.89195656 18.37600432 14.23061884 17 11 C16.01 11.433125 15.02 11.86625 14 12.3125 C12.66698206 12.87574702 11.33363053 13.43820498 10 14 C9.35160156 14.28617187 8.70320313 14.57234375 8.03515625 14.8671875 C3.13919852 16.90313032 -0.70361588 17.28373486 -6 17 C-5.50921362 12.95101238 -4.09736103 10.2105922 -1.9375 6.84375 C-0.80014692 4.60695561 -0.45488917 2.45760918 0 0 Z " fill="#EDE8D3" transform="translate(385,322)"/>
<path d="M0 0 C0.721875 0.763125 1.44375 1.52625 2.1875 2.3125 C8.4075977 8.25614892 14.86804624 9.26978129 23.07617188 10.84179688 C30.63659343 12.46227433 36.19017286 15.39990898 41 21.5625 C42.10097869 24.24613556 42.07637294 26.13124152 42 29 C41.52175781 28.57847656 41.04351562 28.15695312 40.55078125 27.72265625 C33.50536767 22.49700046 26.96238072 22.30795313 18.48950195 22.31469727 C12.19531345 22.28178572 7.65874693 21.65874693 3 17 C3 18.65 3 20.3 3 22 C-1.91381326 17.24469684 -1.91381326 17.24469684 -2.16796875 13.57421875 C-2.17441406 12.62160156 -2.18085938 11.66898437 -2.1875 10.6875 C-2.20167969 9.74261719 -2.21585937 8.79773438 -2.23046875 7.82421875 C-1.98824335 4.85593118 -1.24026607 2.69132835 0 0 Z " fill="#FEFBEE" transform="translate(448,327)"/>
<path d="M0 0 C3 1 3 1 4.15087891 2.79418945 C4.50585449 3.55948975 4.86083008 4.32479004 5.2265625 5.11328125 C5.6184375 5.94923828 6.0103125 6.78519531 6.4140625 7.64648438 C6.81367188 8.52626953 7.21328125 9.40605469 7.625 10.3125 C8.03234375 11.18068359 8.4396875 12.04886719 8.859375 12.94335938 C12.20363939 20.15789001 13.72955775 25.97486476 13 34 C11.04467113 38.59502285 8.44492495 40.99718142 3.84765625 42.8828125 C-2.49990257 45.16669914 -2.49990257 45.16669914 -6 44 C-5.44570313 43.52949219 -4.89140625 43.05898438 -4.3203125 42.57421875 C-3.59585937 41.95160156 -2.87140625 41.32898438 -2.125 40.6875 C-1.40570313 40.07261719 -0.68640625 39.45773437 0.0546875 38.82421875 C3.25337839 35.82464316 4.37776719 33.54404354 4.625 29.25 C4.53828964 21.13174212 0.01408145 14.7788002 -4 8 C-4.68273215 6.67482113 -5.35909286 5.345905 -6 4 C-3.1875 1.9375 -3.1875 1.9375 0 0 Z " fill="#EDE8D4" transform="translate(357,356)"/>
<path d="M0 0 C33.30602767 -0.64394038 65.31039695 4.14305292 95 20 C92.31814444 21.78790371 90.86603384 22.43363213 87.8515625 23.19140625 C66.70905548 28.73361683 44.95952648 36.74747487 28 51 C27.34 50.67 26.68 50.34 26 50 C42.11465251 36.4182739 61.8542246 26.59480164 82.0703125 20.875 C84.86550723 20.29288507 84.86550723 20.29288507 86 19 C58.59617415 6.01196825 29.77538058 3.47200837 0 1 C0 0.67 0 0.34 0 0 Z " fill="#FBF8EA" transform="translate(209,175)"/>
<path d="M0 0 C2.4375 1.625 2.4375 1.625 4 4 C4.56416593 7.9491615 4.65243688 10.0464384 2.375 13.375 C-0.56278062 15.38506043 -2.4396496 15.92733979 -6 16 C-9.52906067 14.39588152 -10.82772908 13.25840638 -13 10 C-13.5 7.125 -13.5 7.125 -13 4 C-8.84273523 -0.76564498 -6.3282573 -1.99222915 0 0 Z " fill="#F7F3E4" transform="translate(1483,754)"/>
<path d="M0 0 C2.5 2.125 2.5 2.125 4 5 C4.07481382 9.26438773 3.64839572 11.23718151 0.875 14.5 C-2.97148295 16.50686067 -4.88546541 16.27176524 -9 15 C-11.87406793 12.42070826 -12.83879082 10.77380407 -13.625 7 C-12.90385191 3.53848918 -11.64268867 1.94288605 -8.78515625 -0.14453125 C-5.53599179 -1.70157067 -3.31572655 -1.10524218 0 0 Z " fill="#F8F4E5" transform="translate(1470,807)"/>
<path d="M0 0 C1.75795697 3.51591395 0.07344131 7.34843661 -0.75 11.0625 C-0.92015625 11.90361328 -1.0903125 12.74472656 -1.265625 13.61132812 C-1.4409375 14.41119141 -1.61625 15.21105469 -1.796875 16.03515625 C-1.95510742 16.7712915 -2.11333984 17.50742676 -2.27636719 18.26586914 C-2.51516602 18.83813232 -2.75396484 19.41039551 -3 20 C-6.47823115 21.15941038 -8.45895578 20.70820884 -12 20 C-12.33 21.32 -12.66 22.64 -13 24 C-16.3 23.67 -19.6 23.34 -23 23 C-18.5078125 17.53125 -18.5078125 17.53125 -17 16 C-16.34 16 -15.68 16 -15 16 C-15 15.34 -15 14.68 -15 14 C-14.34 14 -13.68 14 -13 14 C-13 13.34 -13 12.68 -13 12 C-12.34 12 -11.68 12 -11 12 C-10.731875 11.360625 -10.46375 10.72125 -10.1875 10.0625 C-9 8 -9 8 -6 7 C-6 6.34 -6 5.68 -6 5 C-5.34 5 -4.68 5 -4 5 C-4 4.34 -4 3.68 -4 3 C-2 1.375 -2 1.375 0 0 Z " fill="#FEFAEE" transform="translate(1392,926)"/>
<path d="M0 0 C0 3.80614604 -1.16226596 5.07596531 -3.25 8.25 C-17.27737211 30.34504499 -26.94759888 53.88917784 -34 79 C-34.33 79 -34.66 79 -35 79 C-33.73892571 52.51743992 -18.77332513 18.77332513 0 0 Z " fill="#FCF9EB" transform="translate(296,210)"/>
<path d="M0 0 C0.66 0 1.32 0 2 0 C3.29673602 2.53919006 4.58747837 5.08114238 5.875 7.625 C6.23980469 8.33785156 6.60460938 9.05070313 6.98046875 9.78515625 C11.02895184 17.80851365 11.02895184 17.80851365 12 22 C11.34 22.99 10.68 23.98 10 25 C8.02 24.34 6.04 23.68 4 23 C4 19.37 4 15.74 4 12 C1.525 11.01 1.525 11.01 -1 10 C-0.67 6.7 -0.34 3.4 0 0 Z " fill="#FDFAEE" transform="translate(1532,972)"/>
<path d="M0 0 C1.875 1.125 1.875 1.125 3 3 C2.875 6.0625 2.875 6.0625 2 9 C-1 11 -1 11 -3.5625 10.75 C-6 10 -6 10 -8 8 C-7.75 4.4375 -7.75 4.4375 -7 1 C-4.45132831 -0.27433584 -2.82594567 -0.27570202 0 0 Z " fill="#EEE9D4" transform="translate(150,812)"/>
<path d="M0 0 C1.7325 0.1546875 1.7325 0.1546875 3.5 0.3125 C5.5 3.3125 5.5 3.3125 5.25 5.875 C4.5 8.3125 4.5 8.3125 2.5 10.3125 C-1.125 9.9375 -1.125 9.9375 -4.5 9.3125 C-5.125 5.9375 -5.125 5.9375 -5.5 2.3125 C-3.5 0.3125 -3.5 0.3125 0 0 Z " fill="#F1ECD9" transform="translate(299.5,845.6875)"/>
<path d="M0 0 C3.0625 0.1875 3.0625 0.1875 5.0625 2.1875 C5.3125 5.1875 5.3125 5.1875 5.0625 8.1875 C3.0625 10.1875 3.0625 10.1875 0.625 10.5 C-1.9375 10.1875 -1.9375 10.1875 -3.8125 9.0625 C-4.9375 7.1875 -4.9375 7.1875 -4.6875 4.0625 C-3.68914628 0.23547742 -3.68914628 0.23547742 0 0 Z " fill="#FEFBEE" transform="translate(165.9375,761.8125)"/>
<path d="M0 0 C2.4375 0.8125 2.4375 0.8125 4.4375 2.8125 C4.6875 5.3125 4.6875 5.3125 4.4375 7.8125 C2.4375 9.8125 2.4375 9.8125 -0.5625 10.0625 C-3.5625 9.8125 -3.5625 9.8125 -5.5625 7.8125 C-5.93046448 4.94237704 -5.93759409 3.40475382 -4.375 0.9375 C-2.5625 -0.1875 -2.5625 -0.1875 0 0 Z " fill="#FEFAEE" transform="translate(106.5625,767.1875)"/>
<path d="M0 0 C3.625 0.375 3.625 0.375 7 1 C8.32278481 6.41139241 8.32278481 6.41139241 6.9375 8.9375 C4.06369928 10.51345523 2.08587291 9.80501033 -1 9 C-2 8 -2 8 -2.1875 5.0625 C-2 2 -2 2 0 0 Z " fill="#FEFBEE" transform="translate(276,721)"/>
<path d="M0 0 C2.4375 0.8125 2.4375 0.8125 4.4375 2.8125 C3.86931818 8.38068182 3.86931818 8.38068182 2.4375 9.8125 C-0.5 10 -0.5 10 -3.5625 9.8125 C-5.5625 7.8125 -5.5625 7.8125 -5.875 5.375 C-5.5625 2.8125 -5.5625 2.8125 -4.375 0.9375 C-2.5625 -0.1875 -2.5625 -0.1875 0 0 Z " fill="#FEFBEE" transform="translate(224.5625,746.1875)"/>
<path d="M0 0 C1.65 0.33 3.3 0.66 5 1 C4.67 4.96 4.34 8.92 4 13 C-2.15234375 12.4140625 -2.15234375 12.4140625 -4 12 C-4.33 11.34 -4.66 10.68 -5 10 C-4.34 10 -3.68 10 -3 10 C-2.86722656 9.36191406 -2.73445313 8.72382812 -2.59765625 8.06640625 C-2.42105469 7.24011719 -2.24445313 6.41382813 -2.0625 5.5625 C-1.88847656 4.73878906 -1.71445313 3.91507813 -1.53515625 3.06640625 C-1 1 -1 1 0 0 Z " fill="#FDFAED" transform="translate(1395,822)"/>
<path d="M0 0 C1.32 0.33 2.64 0.66 4 1 C5.53166168 5.08443115 4.63081652 8.79455657 4 13 C1.03 12.67 -1.94 12.34 -5 12 C-5 11.34 -5 10.68 -5 10 C-4.34 9.67 -3.68 9.34 -3 9 C-2.09274566 6.88672575 -2.09274566 6.88672575 -1.375 4.4375 C-1.11460938 3.61121094 -0.85421875 2.78492188 -0.5859375 1.93359375 C-0.39257812 1.29550781 -0.19921875 0.65742187 0 0 Z " fill="#FDFAEE" transform="translate(1534,861)"/>
<path d="M0 0 C1.65 0.33 3.3 0.66 5 1 C4.67 4.96 4.34 8.92 4 13 C-0.455 12.01 -0.455 12.01 -5 11 C-4.34 10.67 -3.68 10.34 -3 10 C-2.349461 7.91388442 -2.349461 7.91388442 -1.9375 5.5 C-1.09393346 1.09393346 -1.09393346 1.09393346 0 0 Z " fill="#FEFBEE" transform="translate(1545,817)"/>
<path d="M0 0 C1 3 1 3 0 6 C0.99 6 1.98 6 3 6 C3.66 4.02 4.32 2.04 5 0 C6 3 6 3 6 7 C6.66 7 7.32 7 8 7 C8.66 5.02 9.32 3.04 10 1 C11 4 11 4 11 8 C11.99 8.66 12.98 9.32 14 10 C12.02 10.33 10.04 10.66 8 11 C8 10.34 8 9.68 8 9 C7.01 9 6.02 9 5 9 C4.01 11.97 3.02 14.94 2 18 C0.72648692 15.45297384 1.19808075 14.5717055 1.9375 11.875 C2.13214844 11.15054688 2.32679687 10.42609375 2.52734375 9.6796875 C2.76130859 8.84824219 2.76130859 8.84824219 3 8 C0.36 8 -2.28 8 -5 8 C-4.67 7.01 -4.34 6.02 -4 5 C-3.34 5 -2.68 5 -2 5 C-1.34 3.35 -0.68 1.7 0 0 Z " fill="#F3EFDD" transform="translate(1421,932)"/>
<path d="M0 0 C0.99 0.33 1.98 0.66 3 1 C2.50371094 1.34289062 2.00742188 1.68578125 1.49609375 2.0390625 C-5.93393943 7.76314879 -10.83675792 16.22322155 -12.69140625 25.43359375 C-12.79324219 26.28050781 -12.89507812 27.12742187 -13 28 C-13.66 28 -14.32 28 -15 28 C-14.46833743 17.01230692 -9.98465107 8.45659363 -1.875 1.0625 C-1.25625 0.711875 -0.6375 0.36125 0 0 Z " fill="#EFEAD6" transform="translate(141,698)"/>
<path d="M0 0 C1.875 0.3125 1.875 0.3125 4 1 C6.1519437 4.22791555 6.20086443 5.28400809 6 9 C3.69 8.67 1.38 8.34 -1 8 C-0.67 5.36 -0.34 2.72 0 0 Z " fill="#FEFBEE" transform="translate(1481,754)"/>
<path d="M0 0 C-0.33 2.64 -0.66 5.28 -1 8 C-3.31 7.67 -5.62 7.34 -8 7 C-7.62005832 4.24542282 -7.1926367 3.17979426 -5.125 1.25 C-3 0 -3 0 0 0 Z " fill="#FEFBEE" transform="translate(1466,806)"/>
<path d="M0 0 C0.66 0 1.32 0 2 0 C1.125 4.75 1.125 4.75 0 7 C1.32 7 2.64 7 4 7 C4.33 5.02 4.66 3.04 5 1 C5.66 1 6.32 1 7 1 C6.42415568 3.38564077 5.77772405 5.66682784 5 8 C6.65 8.33 8.3 8.66 10 9 C6.25 10.125 6.25 10.125 4 9 C3.67 9.66 3.34 10.32 3 11 C2.67 10.34 2.34 9.68 2 9 C1.01 8.67 0.02 8.34 -1 8 C-0.67 5.36 -0.34 2.72 0 0 Z " fill="#F3EFDE" transform="translate(1497,950)"/>
<path d="M0 0 C2.31 0.33 4.62 0.66 7 1 C5.63016497 4.16115776 5.0109362 4.9927092 2 7 C-0.1875 6.625 -0.1875 6.625 -2 6 C-1.34 4.02 -0.68 2.04 0 0 Z " fill="#FEFBEE" transform="translate(1466,816)"/>
<path d="M0 0 C0.99 0 1.98 0 3 0 C2.25 7.625 2.25 7.625 0 11 C-0.99 10.67 -1.98 10.34 -3 10 C-2.39009109 6.44219804 -1.4216319 3.3171411 0 0 Z " fill="#FEFBEE" transform="translate(1439,944)"/>
<path d="M0 0 C2.31 0.33 4.62 0.66 7 1 C6.67 3.31 6.34 5.62 6 8 C2.83884224 6.63016497 2.0072908 6.0109362 0 3 C0 2.01 0 1.02 0 0 Z " fill="#FEFBEE" transform="translate(1470,761)"/>
<path d="M0 0 C2.31 0.33 4.62 0.66 7 1 C6.67 3.31 6.34 5.62 6 8 C2.83884224 6.63016497 2.0072908 6.0109362 0 3 C0 2.01 0 1.02 0 0 Z " fill="#FEFBEE" transform="translate(1457,814)"/>
<path d="M0 0 C2.31 0.33 4.62 0.66 7 1 C6.67 2.32 6.34 3.64 6 5 C3.69 5.66 1.38 6.32 -1 7 C-0.67 4.69 -0.34 2.38 0 0 Z " fill="#FEFBEF" transform="translate(1479,763)"/>
<path d="M0 0 C0.33 0 0.66 0 1 0 C1 1.98 1 3.96 1 6 C1.99 6 2.98 6 4 6 C4 4.35 4 2.7 4 1 C4.66 0.67 5.32 0.34 6 0 C5.67 2.31 5.34 4.62 5 7 C5.99 7.33 6.98 7.66 8 8 C5.36 7.67 2.72 7.34 0 7 C-0.33 8.32 -0.66 9.64 -1 11 C-1 9.35 -1 7.7 -1 6 C-1.99 6 -2.98 6 -4 6 C-3.67 5.34 -3.34 4.68 -3 4 C-2.34 4 -1.68 4 -1 4 C-0.67 2.68 -0.34 1.36 0 0 Z " fill="#F2EEDC" transform="translate(1487,949)"/>
<path d="M0 0 C1.65 0 3.3 0 5 0 C5.625 1.875 5.625 1.875 6 4 C5.34 4.66 4.68 5.32 4 6 C1.375 5.625 1.375 5.625 -1 5 C-0.67 3.35 -0.34 1.7 0 0 Z " fill="#EEE9D5" transform="translate(138,828)"/>
<path d="M0 0 C0.99 0 1.98 0 3 0 C2.125 7.75 2.125 7.75 1 10 C0.01 10 -0.98 10 -2 10 C-1.125 2.25 -1.125 2.25 0 0 Z " fill="#FEFBEF" transform="translate(1430,942)"/>
<path d="M0 0 C2.0625 0.4375 2.0625 0.4375 4 1 C4.625 2.875 4.625 2.875 5 5 C4.34 5.66 3.68 6.32 3 7 C0.875 6.625 0.875 6.625 -1 6 C-1.042721 4.33388095 -1.04063832 2.66617115 -1 1 C-0.67 0.67 -0.34 0.34 0 0 Z " fill="#EEE9D5" transform="translate(331,871)"/>
<path d="M0 0 C2.0625 0.4375 2.0625 0.4375 4 1 C5.125 4.75 5.125 4.75 4 7 C2.35 6.67 0.7 6.34 -1 6 C-1.042721 4.33388095 -1.04063832 2.66617115 -1 1 C-0.67 0.67 -0.34 0.34 0 0 Z " fill="#EEE9D5" transform="translate(317,852)"/>
<path d="M0 0 C1.2065625 0.0309375 1.2065625 0.0309375 2.4375 0.0625 C3.0625 1.9375 3.0625 1.9375 3.4375 4.0625 C2.7775 4.7225 2.1175 5.3825 1.4375 6.0625 C-0.6875 5.6875 -0.6875 5.6875 -2.5625 5.0625 C-3.125 3.125 -3.125 3.125 -3.5625 1.0625 C-2.5625 0.0625 -2.5625 0.0625 0 0 Z " fill="#EEE9D5" transform="translate(130.5625,814.9375)"/>
<path d="M0 0 C0.99 0.33 1.98 0.66 3 1 C2.34 3.97 1.68 6.94 1 10 C-0.32 9.67 -1.64 9.34 -3 9 C-2.01 6.03 -1.02 3.06 0 0 Z " fill="#FEFBEF" transform="translate(1497,958)"/>
<path d="M0 0 C0.99 0 1.98 0 3 0 C2.01 3.3 1.02 6.6 0 10 C-0.99 10 -1.98 10 -3 10 C-2.69201674 8.51988629 -2.378482 7.04092675 -2.0625 5.5625 C-1.88847656 4.73878906 -1.71445313 3.91507813 -1.53515625 3.06640625 C-1 1 -1 1 0 0 Z " fill="#FEFBEF" transform="translate(1435,943)"/>
<path d="M0 0 C1.65 0.33 3.3 0.66 5 1 C4.67 2.65 4.34 4.3 4 6 C2.35 5.67 0.7 5.34 -1 5 C-0.67 3.35 -0.34 1.7 0 0 Z " fill="#EDE8D4" transform="translate(311,870)"/>
<path d="M0 0 C0.99 0.33 1.98 0.66 3 1 C2.34 3.97 1.68 6.94 1 10 C0.01 10 -0.98 10 -2 10 C-1.34 6.7 -0.68 3.4 0 0 Z " fill="#FEFBEF" transform="translate(1501,959)"/>
<path d="M0 0 C0.66 0 1.32 0 2 0 C2.125 6.625 2.125 6.625 1 10 C0.01 10 -0.98 10 -2 10 C-1.85950482 8.52031676 -1.71245174 7.04125484 -1.5625 5.5625 C-1.48128906 4.73878906 -1.40007812 3.91507813 -1.31640625 3.06640625 C-1 1 -1 1 0 0 Z " fill="#FEFBEF" transform="translate(1417,939)"/>
<path d="M0 0 C0.99 0 1.98 0 3 0 C2.34 3.3 1.68 6.6 1 10 C0.34 10 -0.32 10 -1 10 C-1.125 2.25 -1.125 2.25 0 0 Z " fill="#FEFBEF" transform="translate(1421,940)"/>
<path d="M0 0 C5.75 -0.125 5.75 -0.125 8 1 C7.67 2.32 7.34 3.64 7 5 C4.69 4.34 2.38 3.68 0 3 C0 2.01 0 1.02 0 0 Z " fill="#FDFAED" transform="translate(1489,969)"/>
<path d="M0 0 C1.98 0.495 1.98 0.495 4 1 C3.67 2.32 3.34 3.64 3 5 C1.68 4.67 0.36 4.34 -1 4 C-0.67 2.68 -0.34 1.36 0 0 Z " fill="#FBF8EA" transform="translate(146,815)"/>
<path d="M0 0 C1.65 0 3.3 0 5 0 C4.67 1.32 4.34 2.64 4 4 C2.35 4 0.7 4 -1 4 C-0.67 2.68 -0.34 1.36 0 0 Z " fill="#F5F1E1" transform="translate(1566,838)"/>
</svg>
