<svg width="1728" height="1117" viewBox="0 0 1728 1117" fill="none" xmlns="http://www.w3.org/2000/svg">
<path d="M536.06 293.661C534.787 286.878 530.946 280.383 524.927 277.01C520.303 274.427 514.858 273.87 509.607 273.11C504.366 272.351 498.895 271.211 494.854 267.775C493.019 266.227 491.57 264.26 489.78 262.653C488.265 261.283 486.382 260.167 484.386 260.021C485.475 262.416 485.559 265.198 485.208 267.83C484.828 270.682 483.969 273.455 483.436 276.301C482.18 283.081 483.028 290.516 487.088 296.096C491.138 301.688 498.795 304.867 505.283 302.519C502.11 301.506 499.512 298.86 498.567 295.668C501.105 298.713 505.315 299.756 509.261 300.002C513.217 300.237 517.239 299.851 521.085 300.766C527.486 302.288 532.824 307.648 534.321 314.064C536.28 307.452 537.333 300.433 536.06 293.661ZM518.393 288.717C514.643 287.439 510.594 287.23 506.624 287.381C503.457 287.5 500.227 287.828 497.164 287.011C494.09 286.206 491.164 283.917 490.698 280.784C490.474 283.796 490.972 286.859 492.141 289.637C488.95 287.075 487.109 283.056 486.746 278.976C486.385 274.966 487.385 270.907 489.108 267.274C490.127 270.556 492.909 273.141 496.025 274.656C499.412 276.303 503.191 276.892 506.901 277.483C510.61 278.073 514.391 278.72 517.733 280.439C523.427 283.389 527.306 289.569 527.474 295.985C525.622 292.466 522.156 289.993 518.393 288.717Z" fill="#8A7830" fill-opacity="0.15"/>
<path d="M415.835 311.344C415.823 311.297 415.798 311.251 415.786 311.204V311.193C413.529 305.135 410.606 299.361 407.669 293.599L407.14 293.87C405.268 295.328 403.202 296.56 401.025 297.502C400.633 297.663 400.482 298.123 400.702 298.478C402.442 301.322 404.171 304.156 405.843 307.048C410.063 313.778 413.848 320.822 408.049 328.081C405.74 331.136 402.591 333.281 399.498 335.32C399.498 335.32 403.3 334.125 405.174 333.575C408.042 332.731 411.143 332.358 413.58 330.629C416.429 328.619 417.849 325.017 417.968 321.53C418.072 318.043 417.05 314.609 415.835 311.344Z" fill="#8A7830" fill-opacity="0.15"/>
<path d="M462.781 272.086C461.936 270.034 459.468 269.283 457.765 267.848C456.229 266.572 455.235 264.64 453.45 263.719C452.069 263.009 450.426 263.04 448.865 263.082C443.3 263.252 437.746 263.42 432.18 263.588C431.936 263.595 431.092 263.849 431.092 263.849C431.407 267.394 430.021 270.997 427.726 273.69C426.536 274.992 424.171 276.767 425.906 278.527L427.179 279.053C434.149 278.23 440.943 276.025 447.088 272.624C447.559 272.368 448.139 272.702 448.095 273.251C448.027 274.208 448.227 275.204 448.693 276.055C449.378 277.319 450.615 278.265 452.022 278.601C452.644 278.749 453.32 278.788 453.888 279.089C454.455 279.388 454.892 280.087 454.629 280.677C454.463 281.031 454.097 281.238 453.739 281.4C452.726 281.869 451.651 282.188 450.559 282.357C449.968 282.442 449.765 283.17 450.218 283.554C451.255 284.436 452.62 284.947 453.983 284.936C455.275 284.914 456.522 284.473 457.672 283.883C458.81 283.306 459.898 282.567 460.687 281.568C461.883 280.068 462.322 278.122 462.727 276.247C463.028 274.864 463.316 273.389 462.781 272.086Z" fill="#8A7830" fill-opacity="0.15"/>
<path d="M493.864 243.496C490.59 241.729 488.028 238.685 486.863 235.137C485.927 232.295 485.783 229.024 483.79 226.781C481.497 224.196 477.538 223.892 474.603 222.139H474.591C472.383 218.305 472.031 213.35 468.839 210.275C467.406 208.891 465.542 208.055 463.726 207.239C460.955 206.019 458.196 204.786 455.438 203.552C454.753 203.244 454.158 204.087 454.65 204.645C456.931 207.22 460.375 208.818 462.898 211.281C465.052 213.404 466.524 216.22 467.045 219.213C467.102 219.596 466.808 219.953 466.412 219.987C465.296 220.109 464.197 220.359 463.135 220.748C462.778 220.885 462.376 220.71 462.25 220.34C461.394 217.892 460.491 215.491 458.65 213.711C457.215 212.327 455.353 211.49 453.537 210.686C450.779 209.453 448.008 208.221 445.248 206.988C444.565 206.691 443.969 207.534 444.462 208.092C446.742 210.655 450.187 212.265 452.699 214.728C453.893 215.885 454.862 217.258 455.577 218.755C455.786 219.181 455.472 219.667 454.996 219.703C454.542 219.726 454.088 219.762 453.635 219.808C452.992 219.72 452.332 219.458 451.645 219.045C451.16 218.755 450.012 218.517 449.588 218.807C448.98 219.196 448.4 219.735 447.847 220.391C446.941 220.496 446.035 220.612 445.13 220.753C444.391 220.131 443.639 219.429 442.849 218.645C442.286 218.076 441.122 218.084 440.778 218.769C440.29 219.701 439.827 220.693 439.388 221.753C438.495 221.928 437.603 222.113 436.711 222.312L434.125 219.676C433.49 219.029 432.355 219.244 432.097 220.09C431.732 221.277 431.379 222.486 431.061 223.706C430.17 223.939 429.291 224.184 428.412 224.451C427.504 223.589 426.574 222.74 425.632 221.914C424.963 221.326 423.89 221.737 423.692 222.617L422.866 226.227C421.999 226.518 421.145 226.82 420.291 227.145C419.365 226.458 418.44 225.854 417.541 225.318C416.889 224.915 415.891 225.513 415.725 226.286C415.462 227.365 415.174 228.375 414.871 229.291C414.042 229.639 413.212 229.999 412.383 230.382C411.56 230.111 410.775 229.945 410.052 229.93C409.538 229.908 408.674 230.712 408.419 231.208C408.04 231.905 407.625 232.476 407.123 232.884C406.72 233.093 406.318 233.29 405.915 233.499C405.904 233.511 405.892 233.511 405.892 233.511C405.88 233.522 405.857 233.523 405.845 233.535L404.743 234.181C404.59 234.138 404.426 234.073 404.249 233.995C403.472 233.678 402.511 233.027 401.575 232.434C401.16 232.165 400.681 232.108 400.359 232.303C400.026 232.486 399.851 232.934 399.899 233.422C399.962 234.528 400.062 235.679 399.98 236.52C399.961 236.718 399.931 236.895 399.9 237.047L398.752 237.729C398.672 237.777 398.578 237.768 398.508 237.7C397.522 236.549 395.337 234.113 394.401 233.03C388.777 226.069 383.888 218.262 380.398 210.021C372.021 190.897 369.714 169.132 374.157 148.718L375.168 144.648C377.129 136.743 380.844 129.071 378.397 121.072C378.282 120.69 378.155 120.321 377.994 119.952C377.875 122.95 376.579 125.967 374.466 128.073C372.183 130.312 369.093 131.581 365.992 131.977C359.825 132.815 354.136 130.469 348.909 127.495C347.087 126.459 345.31 125.353 343.604 124.278C330.302 116.026 316.181 108.962 301.115 104.52C300.468 104.328 299.823 104.17 299.167 104C283.989 100.191 267.921 99.3297 252.677 102.816C252.144 102.935 251.952 103.615 252.358 103.977C258.878 110.018 260.169 121.042 255.117 128.388C254.97 128.601 254.825 128.814 254.666 129.016C265.106 135.653 272.856 146.404 275.828 158.421C278.735 170.173 277.055 183.011 271.226 193.628C271.025 193.983 271.189 194.433 271.578 194.574C292.814 202.769 308.736 223.409 311.261 246.042C311.308 246.484 311.769 246.763 312.185 246.589C333.938 237.583 359.651 238.786 380.504 249.696C380.929 249.917 380.991 250.498 380.627 250.822C380.627 250.822 380.627 250.822 380.615 250.834C380.603 250.845 380.603 250.845 380.603 250.845C380.592 250.857 380.58 250.868 380.57 250.881C380.524 250.929 380.468 250.988 380.388 251.061C380.24 251.216 380.036 251.431 379.798 251.694C378.335 253.225 376.908 254.812 375.517 256.398C374.919 257.112 374.414 257.429 374.647 256.98C374.858 256.579 375.081 256.199 375.327 255.82C374.646 256.502 373.965 257.196 373.307 257.9C372.721 258.218 372.112 258.537 371.479 258.834C371.018 259.055 370.189 259.858 370.014 260.305C369.74 260.953 369.524 261.623 369.333 262.315C368.722 263.018 368.123 263.734 367.536 264.461C366.856 264.746 366.152 265.021 365.437 265.296C364.93 265.495 364.148 266.343 364.092 266.881C363.995 267.629 363.922 268.389 363.884 269.158C363.332 269.918 362.793 270.689 362.254 271.462C361.503 271.726 360.742 272.003 359.932 272.257C359.354 272.435 358.68 273.384 358.73 273.954C358.775 274.78 358.879 275.616 358.994 276.453C358.502 277.246 358.021 278.04 357.565 278.855C356.734 279.122 355.879 279.401 355.024 279.679C354.411 279.881 353.785 280.865 353.976 281.49C354.208 282.335 354.463 283.19 354.742 284.045C354.299 284.907 353.866 285.769 353.459 286.642L350.779 287.527C350.073 287.733 349.624 288.816 349.897 289.438C350.28 290.291 350.675 291.154 351.106 291.994C350.745 292.901 350.384 293.807 350.047 294.713L349.573 294.877C348.801 295.166 347.969 295.431 347.207 295.731C346.527 296.004 346.124 297.1 346.513 297.718C347.036 298.566 347.571 299.427 348.129 300.262C347.851 301.179 347.571 302.094 347.304 303.011L346.774 303.223C345.966 303.546 345.183 303.893 344.377 304.23C343.662 304.54 343.354 305.666 343.836 306.272C344.487 307.093 345.15 307.916 345.835 308.724C345.627 309.65 345.429 310.587 345.245 311.525C344.254 311.982 343.277 312.461 342.24 312.944C341.515 313.301 341.277 314.448 341.852 315.017C342.63 315.813 343.419 316.596 344.219 317.344C344.07 318.292 343.943 319.25 343.827 320.198C342.839 320.713 341.827 321.252 340.805 321.803C340.07 322.207 339.926 323.375 340.568 323.907C341.473 324.652 342.343 325.376 343.259 326.086C343.19 327.031 343.133 327.977 343.088 328.934C342.09 329.531 341.093 330.139 340.083 330.76C339.339 331.223 339.276 332.4 339.987 332.883C340.793 333.433 341.589 333.971 342.418 334.496L342.975 334.843C342.987 335.787 343.001 336.741 343.037 337.696C342.041 338.363 341.045 339.053 340.05 339.755C339.329 340.275 339.348 341.451 340.117 341.875C341.158 342.465 342.256 343.043 343.367 343.585C343.439 344.539 343.533 345.491 343.639 346.445C342.68 347.18 341.71 347.952 340.74 348.735C340.044 349.313 340.122 350.487 340.97 350.838C342.125 351.344 343.268 351.827 344.421 352.274C344.574 353.226 344.739 354.177 344.915 355.128C343.981 355.945 343.059 356.785 342.138 357.648C341.432 358.272 341.718 359.43 342.588 359.711C343.775 360.111 344.963 360.5 346.149 360.864C346.383 361.801 346.617 362.728 346.863 363.654L346.41 364.12C345.695 364.873 344.947 365.639 344.255 366.414C343.656 367.082 344.022 368.215 344.914 368.425C346.146 368.73 347.354 369.024 348.572 369.296C348.864 370.209 349.179 371.109 349.505 371.998L349.064 372.522C348.387 373.343 347.789 374.141 347.159 374.961C346.607 375.686 347.056 376.793 347.968 376.932C349.208 377.133 350.436 377.322 351.665 377.499C352.037 378.375 352.41 379.239 352.817 380.102C352.682 380.293 352.558 380.47 352.435 380.659L350.767 383.243C350.287 384.013 350.826 385.071 351.725 385.141C352.975 385.248 354.213 385.344 355.438 385.405C355.88 386.256 356.344 387.095 356.821 387.921C356.231 388.996 355.654 390.084 355.089 391.182C354.691 391.984 355.311 393.005 356.208 392.994C357.467 392.996 358.679 393.011 359.902 392.979C360.424 393.769 360.945 394.56 361.502 395.337C361.018 396.445 360.559 397.576 360.122 398.706C359.794 399.531 360.506 400.491 361.379 400.421L364.344 400.18L365.03 400.104C365.597 400.847 366.186 401.565 366.789 402.284C366.422 403.436 366.08 404.587 365.749 405.748C365.515 406.581 366.295 407.47 367.153 407.32C368.36 407.137 369.532 406.955 370.704 406.761C371.328 407.444 371.963 408.127 372.622 408.809C372.361 409.957 372.1 411.117 371.873 412.266C371.709 413.086 372.545 413.891 373.357 413.73L376.789 413.069H376.8C377.447 413.728 378.129 414.385 378.798 415.044C378.617 416.167 378.437 417.29 378.28 418.403C378.172 419.198 379.02 419.956 379.808 419.796L383.112 419.162L385.155 421.065C385.02 422.153 384.909 423.24 384.796 424.302C384.723 425.073 385.581 425.82 386.336 425.684C387.403 425.493 388.47 425.314 389.514 425.158C390.195 425.793 390.876 426.439 391.546 427.075C391.456 428.114 391.378 429.131 391.3 430.146C391.249 430.881 392.096 431.617 392.816 431.528C393.838 431.396 394.838 431.3 395.838 431.215C396.519 431.873 397.177 432.532 397.836 433.191C397.769 434.172 397.712 435.129 397.667 436.074C397.626 436.752 398.426 437.522 399.114 437.505C400.081 437.467 401.036 437.455 401.968 437.477C402.604 438.159 403.24 438.842 403.851 439.537C403.793 440.459 403.748 441.357 403.724 442.232C403.693 442.874 404.449 443.681 405.08 443.746C405.979 443.827 406.856 443.956 407.723 444.096C408.302 444.827 408.868 445.558 409.435 446.289C409.387 447.141 409.351 447.981 409.338 448.786C409.329 449.368 410.005 450.236 410.58 450.396C411.39 450.62 412.166 450.879 412.919 451.173C413.428 451.94 413.926 452.72 414.401 453.5C414.388 454.281 414.372 455.052 414.379 455.796C414.382 456.332 414.977 457.26 415.45 457.516C416.136 457.882 416.763 458.285 417.369 458.725C417.798 459.529 418.204 460.357 418.587 461.186C418.584 461.921 418.601 462.619 418.655 463.306C418.667 463.807 419.172 464.807 419.519 465.148C420.033 465.659 420.467 466.207 420.878 466.779C421.18 467.633 421.459 468.488 421.715 469.356C421.718 469.495 421.722 469.624 421.737 469.763C421.774 470.298 421.858 470.82 421.919 471.355C421.967 471.82 422.332 472.894 422.506 473.32C422.792 473.988 422.973 474.683 423.12 475.39C423.134 475.459 423.147 475.541 423.16 475.61C423.214 475.865 423.256 476.132 423.297 476.399C423.299 476.457 423.311 476.504 423.312 476.527C423.312 476.538 423.312 476.538 423.325 476.55V476.562C423.325 476.573 423.325 476.573 423.325 476.573C423.44 477.386 424.615 477.332 424.687 476.514C425.755 462.993 421.327 449.23 414.698 437.249C407.078 423.454 396.638 411.469 387.23 398.839C377.823 386.197 369.212 372.427 366.116 356.975C363.154 342.195 366.051 325.538 376.418 314.721C376.69 314.434 377.145 314.458 377.42 314.742C378.558 315.947 379.936 316.937 381.4 317.691C383.726 318.876 386.261 319.556 388.817 320.119C389.415 320.255 389.553 321.055 389.025 321.372C386.317 322.981 384.28 325.726 383.579 328.797C383.349 329.805 383.248 330.844 382.854 331.811C382.471 332.764 381.702 333.659 380.681 333.836C380.066 333.945 379.383 333.673 378.975 333.205C378.65 332.841 378.079 332.844 377.846 333.259C376.968 334.867 376.716 336.831 376.881 338.679C377.068 340.98 377.826 343.199 378.443 345.419C379.5 349.284 380.163 353.251 380.407 357.254C380.43 357.684 380.398 358.221 380.019 358.417C379.651 358.602 379.225 358.357 378.892 358.109C378.203 357.602 377.524 357.061 376.881 356.483C376.427 356.075 375.715 356.444 375.742 357.06C375.882 359.27 377.022 361.443 378.85 362.724C380.868 364.139 383.602 364.428 385.885 363.507C386.732 363.822 387.666 363.868 388.534 363.647C389.448 363.424 390.274 362.914 390.884 362.198C392.001 362.553 393.407 361.946 394.044 360.892C394.803 359.637 394.679 358.009 394.187 356.612C393.697 355.215 392.871 353.966 392.265 352.619C390.496 348.68 390.708 343.909 392.813 340.149C393.113 339.616 393.438 339.107 393.798 338.62C393.831 338.572 393.876 338.524 393.922 338.489C395.506 337.142 398.721 334.413 398.721 334.413C404.202 330.11 410.795 324.227 408.882 316.552C407.998 313.068 405.946 309.917 404.148 306.666C402.366 303.566 400.652 300.407 398.95 297.259C398.742 296.891 398.928 296.431 399.333 296.293C401.793 295.46 404.153 294.349 406.365 292.963L406.894 292.692C406.882 292.658 406.858 292.635 406.846 292.601C409.017 291.414 411.102 290.043 413.043 288.511C413.283 288.319 413.621 288.309 413.87 288.501C418.13 291.85 422.953 294.474 428.056 296.263C428.549 296.426 428.706 297.063 428.307 297.399C426.245 299.213 425.468 302.472 426.71 304.957C427.005 305.544 427.407 306.197 427.179 306.82C426.896 307.597 425.781 307.719 425.026 307.367C424.271 307.013 423.683 306.364 422.939 305.987C422.195 305.61 421.1 305.639 420.724 306.396C420.47 306.926 420.682 307.469 421.079 307.936C421.344 308.267 421.689 308.562 422.022 308.786C423.234 309.64 424.456 310.493 425.69 311.334C426.829 312.108 428.014 312.894 429.36 313.126C431.538 313.5 433.664 312.408 435.595 311.354C437.066 310.558 438.649 309.631 439.238 308.066C439.564 307.184 439.516 306.218 439.479 305.275C439.356 302.796 439.245 300.305 439.132 297.826C439.065 296.604 439.009 295.348 438.479 294.242C437.837 292.895 436.602 291.96 435.446 291.001C431.707 287.917 428.475 284.215 425.92 280.098C425.92 280.098 424.047 277.502 424.039 276.757C424.155 274.517 426.357 273.177 427.265 271.359C428.731 269.059 429.679 266.542 430.343 263.867C430.343 263.867 431.535 252.451 433.947 247.972C435.914 244.296 439.456 241.628 443.319 240.07C446.466 238.798 449.808 238.199 453.19 237.912C453.504 237.881 453.743 237.653 453.805 237.348C454.214 235.146 455.137 233.037 456.377 231.432C455.488 233.925 454.755 236.694 454.686 239.376L454.689 239.492C454.848 241.108 455.274 242.67 456.126 244.046C458.243 247.462 462.404 248.857 465.916 250.816C469.936 253.053 473.401 256.307 475.879 260.181C476.061 260.479 476.426 260.586 476.748 260.437C477.806 259.92 478.865 259.403 479.923 258.886C480.384 258.664 480.426 258.046 480.021 257.718C477.653 255.845 476.776 252.163 478.279 249.49C477.724 250.506 476.575 251.142 475.41 251.185C474.257 251.227 473.115 250.721 472.267 249.928C470.641 248.397 470.17 245.951 470.473 243.729C470.482 243.647 470.492 243.565 470.512 243.471C470.893 241.095 473.818 240.18 475.584 241.824C475.596 241.836 475.609 241.847 475.62 241.858C476.946 243.105 478.409 244.243 479.393 245.767C480.159 246.947 480.582 248.439 480.314 249.786C480.244 250.184 480.102 250.573 479.89 250.928C481.865 250.736 483.921 251.381 485.425 252.693C486.629 253.734 487.47 255.168 487.815 256.721C487.921 257.242 488.533 257.46 488.932 257.123C490.584 255.692 492.127 254.091 492.714 252.025C493.109 250.651 493.036 249.208 493.15 247.784C493.237 246.628 493.473 245.422 494.112 244.473C494.346 244.136 494.23 243.685 493.864 243.496ZM318.149 237.083C322.169 207.239 335.526 178.423 355.741 156.068C338.119 180.43 325.378 207.855 318.149 237.083ZM355.548 149.583C355.304 149.636 355.061 149.689 354.818 149.742C329.349 155.198 305.416 167.302 285.679 184.284C299.88 170.348 317.207 159.629 335.906 152.825C341.168 150.892 346.569 149.306 352.024 148.01C326.414 134.755 296.971 131.774 268.509 130.643C299.297 129.813 331.543 133.025 358.574 148.958L355.548 149.583Z" fill="#8A7830" fill-opacity="0.15"/>
<path d="M379.759 251.618C379.725 251.654 379.702 251.677 379.667 251.69C378.187 253.022 376.732 254.4 375.324 255.823C375.078 256.203 374.854 256.581 374.643 256.983C374.409 257.432 374.914 257.116 375.513 256.401C376.905 254.815 378.331 253.228 379.795 251.698C380.033 251.436 380.237 251.22 380.384 251.064C380.464 250.993 380.521 250.932 380.566 250.885C380.292 251.114 380.031 251.355 379.759 251.618Z" fill="#8A7830" fill-opacity="0.15"/>
<path d="M418.327 128.464C416.744 133.388 413.745 137.696 411.123 142.158C395.293 169.106 393.766 203.812 406.639 232.21C404.19 233.474 401.778 234.831 399.427 236.255C376.775 211.352 368.07 174.42 377.42 142.061C378.884 137.012 380.746 132.022 381.076 126.782C381.405 121.542 379.881 115.848 375.73 112.635C379.261 116.645 377.82 123.487 373.643 126.813C369.453 130.151 363.508 130.469 358.354 129.031C353.213 127.593 348.638 124.647 344.067 121.878C330.856 113.915 316.778 107.199 301.886 103.207C300.75 101.652 299.523 100.17 298.204 98.7705C305.647 92.8654 307.137 80.7896 301.358 73.2499C317.209 73.3949 332.821 78.1828 346.758 85.7306C358.093 91.8665 368.379 99.7658 377.803 108.549C379.977 110.59 382.117 112.667 384.2 114.779C387.887 118.527 391.533 122.465 396.099 125.083C400.666 127.702 406.417 128.857 411.22 126.693C416.023 124.528 419.065 118.353 416.659 113.675C419.853 117.739 419.912 123.552 418.327 128.464Z" fill="#8A7830" fill-opacity="0.15"/>
<path d="M380.385 251.066C380.238 251.221 380.034 251.436 379.796 251.699C378.333 253.229 376.906 254.816 375.514 256.402C374.915 257.117 374.411 257.434 374.644 256.985C374.855 256.583 375.078 256.204 375.325 255.824C375.66 255.28 376.031 254.757 376.426 254.269C376.708 253.9 377.621 253.2 378.011 252.935C378.582 252.547 379.143 252.135 379.667 251.691C379.702 251.678 379.724 251.654 379.759 251.619C379.975 251.438 380.18 251.257 380.385 251.066Z" fill="#8A7830" fill-opacity="0.15"/>
<path d="M1500.59 26.2231C1500.58 26.0222 1500.58 25.8252 1500.57 25.6251C1500.57 25.8185 1500.57 26.0186 1500.59 26.2231Z" fill="#8A7830" fill-opacity="0.15"/>
<path d="M1956.13 6.19371C1959 -74.601 1916.67 -156.032 1846.78 -197.457C1816.88 -214.473 1783.21 -224.828 1749.04 -228.535C1645.04 -239.824 1550.12 -183.401 1514.36 -84.5616C1514.33 -84.5826 1514.29 -84.6052 1514.26 -84.6174C1503.99 -56.4519 1498.87 -25.1747 1499.85 4.4693L1499.93 4.38017C1499.96 11.496 1500.42 18.5168 1500.57 25.6252C1500.58 25.3289 1500.63 25.0524 1500.76 24.8309C1500.89 26.7201 1501.19 28.6038 1501.42 30.4941C1501.2 30.2271 1501.07 29.8976 1501 29.5228C1501.6 34.0257 1502.21 38.4582 1503 42.9516C1504.26 45.2516 1504.9 48.9618 1504.77 51.4258C1505.77 52.8162 1506.29 55.8214 1506.34 57.6674L1506.32 57.661C1506.31 57.703 1506.31 57.7347 1506.29 57.7593C1507.09 58.8408 1507.29 60.1488 1507.36 61.5337L1507.22 61.4897C1511.66 78.0219 1518.26 94.3226 1526.48 109.329C1526.45 109.345 1526.41 109.356 1526.38 109.364C1536.08 126.447 1547.24 142.923 1561.06 156.95C1560.76 156.621 1554.42 149.558 1553.98 148.951L1554.18 148.82C1564.97 161.454 1577.17 172.967 1590.41 183.037C1590.14 183.093 1589.84 182.931 1589.52 182.72C1629.37 212.706 1667.55 227.375 1717.27 229.568L1717.2 229.455C1785.51 234.029 1856.54 207.44 1901.74 155.253C1901.68 155.198 1901.63 155.139 1901.58 155.077C1903.34 153.019 1905.96 149.917 1907.73 147.634L1907.73 147.636C1938.95 107.601 1956.08 57.2031 1956.13 6.19371ZM1927.92 74.6158C1920.35 97.4434 1908.21 118.617 1893 137.202C1882.83 150.079 1871.57 162.103 1858.79 172.476C1825.85 196.462 1786.37 212.446 1745.49 215.063L1745.49 214.958C1732.44 215.879 1719.86 216.257 1706.82 214.977C1704.51 216.289 1700.58 214.902 1698.02 214.582C1666.1 208.89 1634.95 198.252 1608.06 179.501C1608.09 179.428 1608.12 179.355 1608.16 179.286C1594.5 169.669 1582.05 158.524 1570.74 146.391C1570.72 146.424 1570.7 146.455 1570.67 146.481C1557.12 132.173 1543.99 112.289 1535.9 93.8247C1532.43 85.5711 1529.87 76.9788 1526.91 68.541C1518.66 42.1006 1514.4 14.1712 1516.61 -13.5408C1516.57 -13.5341 1516.54 -13.5269 1516.5 -13.5293C1519.23 -37.6427 1522.61 -62.5081 1531.94 -85.2124C1531.87 -85.256 1531.81 -85.2952 1531.73 -85.3321C1543.62 -113.892 1560.95 -141.815 1584.28 -162.753C1584.3 -162.727 1584.32 -162.692 1584.34 -162.66C1596.99 -173.878 1610.52 -184.18 1625.3 -192.402C1635.11 -196.956 1645.3 -201.371 1655.55 -205.102C1696.05 -217.574 1741.38 -219.099 1782.53 -209.373C1782.53 -209.409 1782.53 -209.45 1782.54 -209.484C1827.08 -198.377 1869.18 -171.868 1896.14 -134.974C1896.54 -133.864 1897.47 -132.706 1898.41 -131.912C1898.4 -131.914 1898.38 -131.921 1898.36 -131.927C1932.64 -84.7375 1945.72 -24.3847 1937.77 33.0603C1936.89 37.8865 1935.55 42.8525 1934.29 47.6153C1932.29 55.2077 1930.32 62.3176 1930.5 68.1678C1929.76 70.3434 1928.77 72.5702 1927.92 74.6158Z" fill="#8A7830" fill-opacity="0.15"/>
<path d="M1922.63 6.37239C1921.74 -0.886078 1921.75 -7.31625 1921.39 -14.4733C1920.48 -27.8625 1918.18 -41.2417 1914.58 -54.1856C1901.72 -99.895 1872.51 -140.912 1832.07 -166.175C1808.47 -180.256 1781.81 -189.144 1754.69 -193.308C1663.5 -207.265 1578.17 -159.276 1546.58 -72.0455C1546.55 -72.0673 1546.51 -72.0887 1546.48 -72.0974C1537.83 -48.3156 1533.36 -21.4379 1534.28 3.69289L1534.36 3.61522C1534.38 9.6734 1534.76 15.6404 1534.81 21.6954C1534.83 21.4447 1534.88 21.207 1535.01 21.0168C1535.12 22.6244 1535.37 24.2276 1535.57 25.8351C1535.36 25.6105 1535.24 25.334 1535.17 25.0139C1535.69 28.8494 1536.19 32.6182 1536.87 36.4481C1538.05 38.3627 1538.57 41.5488 1538.38 43.6602C1539.32 44.8126 1539.75 47.3883 1539.72 48.9709L1539.71 48.9665C1539.7 49.001 1539.7 49.0315 1539.68 49.0529C1540.43 49.9561 1540.58 51.0708 1540.59 52.2636L1540.46 52.2291C1544.24 66.3048 1549.86 80.1946 1556.86 92.9698C1556.83 92.9872 1556.79 92.9999 1556.76 93.0086C1565.05 107.51 1574.46 121.573 1586.27 133.46C1585.72 132.846 1580.65 127.19 1580.28 126.693L1580.48 126.559C1589.67 137.31 1600.04 147.106 1611.31 155.676C1611.07 155.745 1610.8 155.615 1610.53 155.438C1644.99 181.253 1676.4 193.428 1719.3 195.332L1719.24 195.219C1777.4 199.224 1838.04 176.669 1876.56 132.215C1876.51 132.163 1876.45 132.107 1876.4 132.047C1877.9 130.289 1880.14 127.645 1881.65 125.695L1881.65 125.699C1907.99 91.8982 1922.67 49.4637 1922.63 6.37239Z" fill="#8A7830" fill-opacity="0.15"/>
<path d="M1444.31 -6.98951C1453.47 -7.4522 1464.36 -11.103 1471.51 -6.82786C1482.89 12.7371 1458.25 9.16311 1445.11 7.52468C1443.43 7.31472 1441.73 7.29137 1440.04 7.46805C1433.01 8.2025 1414.15 8.36765 1400.02 8.6085C1393.79 8.71348 1389.12 3.63456 1389.12 -2.07263V-2.11339C1389.12 -4.38486 1390.7 -6.35921 1392.92 -6.85914C1402.87 -9.09971 1412.36 -7.8198 1424.46 -6.85005C1431.05 -6.12036 1436.91 -6.06809 1444.31 -6.98951Z" fill="#8A7830" fill-opacity="0.15"/>
<path d="M1478.82 135.587C1486.52 130.614 1494.12 122.014 1502.46 122.146C1522.11 133.408 1498.98 142.614 1486.78 147.756C1485.22 148.416 1483.73 149.245 1482.36 150.242C1476.64 154.384 1460.39 163.945 1448.27 171.209C1442.93 174.411 1436.34 172.345 1433.48 167.402L1433.46 167.367C1432.33 165.398 1432.7 162.901 1434.37 161.361C1441.87 154.452 1450.73 150.82 1461.69 145.621C1467.77 142.961 1472.87 140.081 1478.82 135.587Z" fill="#8A7830" fill-opacity="0.15"/>
<path d="M1580.09 241.832C1584.27 233.682 1586.55 222.436 1593.83 218.391C1616.49 218.332 1601.07 237.852 1593.08 248.396C1592.06 249.748 1591.19 251.208 1590.5 252.757C1587.62 259.197 1578.33 275.592 1571.48 287.933C1568.45 293.374 1561.71 294.874 1556.76 292.02L1556.73 292C1554.76 290.86 1553.83 288.511 1554.51 286.342C1557.54 276.616 1563.4 269.047 1570.29 259.071C1574.22 253.737 1577.19 248.696 1580.09 241.832Z" fill="#8A7830" fill-opacity="0.15"/>
<path d="M1721 283.28C1720.54 274.136 1716.88 263.258 1721.16 256.118C1740.76 244.755 1737.18 269.357 1735.54 282.478C1735.33 284.161 1735.3 285.86 1735.48 287.547C1736.21 294.56 1736.38 313.396 1736.62 327.506C1736.73 333.729 1731.64 338.393 1725.92 338.393H1725.88C1723.61 338.388 1721.63 336.816 1721.13 334.6C1718.89 324.663 1720.17 315.183 1721.14 303.105C1721.87 296.524 1721.92 290.672 1721 283.28Z" fill="#8A7830" fill-opacity="0.15"/>
<path fill-rule="evenodd" clip-rule="evenodd" d="M1518 736.101C1504.65 755.799 1494.89 764.973 1480.9 765.578L1480.1 765.38C1479.47 765.224 1478.81 765.623 1478.66 766.252C1478.5 766.88 1478.9 767.542 1479.53 767.698L1491.57 770.685L1478.61 822.972L1453.46 833.455L1454.75 835.041L1460.34 834.319C1460.34 834.319 1460.85 841.049 1472.99 845.64L1466.99 869.831L1465.07 869.356L1463.82 874.385L1458.06 872.957L1459.31 867.927L1455.17 866.902L1453.92 871.931L1449.06 870.725L1450.31 865.695L1446.14 864.661L1443.49 875.351L1444.94 875.712L1440.7 892.821L1436.07 883.874L1445.75 844.857L1453.46 846.769C1453.89 846.876 1454.3 846.627 1454.4 846.229C1454.5 845.799 1454.26 845.386 1453.83 845.28L1453.33 845.157C1445.6 840.64 1442.83 832.541 1441.15 817.369L1440.02 817.09C1431.48 829.725 1425.25 835.592 1416.27 835.965L1415.77 835.842C1415.37 835.744 1414.96 835.992 1414.85 836.423C1414.75 836.819 1415 837.233 1415.4 837.332L1422.81 839.17L1410.7 888.015L1412.53 891.277C1408.47 907.765 1404.7 924.112 1401.71 940.971C1406.85 926.084 1411.02 911.1 1415.24 896.06L1416.34 897.985C1413.96 908.003 1415.01 903.347 1412.12 918.403L1416.36 905.998L1417.9 900.76L1432.4 926.31L1425.41 954.506L1420.31 953.242C1419.38 953.013 1418.43 953.585 1418.2 954.511L1416.55 961.196C1416.32 962.122 1416.89 963.072 1417.81 963.302L1553.26 996.891C1554.15 997.113 1555.1 996.542 1555.33 995.614L1556.99 988.93C1557.22 988.005 1556.65 987.053 1555.76 986.832L1550.63 985.56L1570.17 906.766L1571.69 907.143L1574.34 896.454L1570.2 895.428L1568.95 900.458L1566.11 899.752L1570.75 881.054L1578.7 876.317L1584.81 863.008L1582.52 862.02L1576.46 875.13L1571.57 877.744L1580.52 841.638L1589.59 843.887C1590.08 844.01 1590.58 843.712 1590.7 843.215C1590.82 842.717 1590.54 842.19 1590.04 842.067L1589.41 841.911C1584.96 839.331 1581.84 835.747 1579.6 830.766L1583.09 816.668L1579.98 815.896L1577.63 825.394C1576.24 820.659 1575.31 814.913 1574.54 807.977L1573.18 807.64C1562.71 823.066 1555.1 830.242 1544.17 830.693L1543.55 830.537C1543.05 830.413 1542.54 830.746 1542.42 831.242C1542.3 831.738 1542.6 832.233 1543.09 832.357L1552.52 834.696L1538.11 892.808L1537.29 892.603L1538.53 887.575L1534.36 886.54L1533.12 891.57L1527.36 890.142L1528.6 885.112L1524.47 884.086L1523.22 889.116L1517.46 887.688L1518.71 882.659L1518.51 882.609C1524.99 861.311 1522.2 871.264 1527.43 851.168L1531.55 854.088L1533.44 853.29L1514.75 830.636L1527.41 779.572L1539 782.444C1539.62 782.599 1540.29 782.202 1540.44 781.572C1540.6 780.944 1540.2 780.282 1539.57 780.126L1538.78 779.929C1526.69 772.858 1522.38 760.197 1519.75 736.535L1519.32 736.428L1530.71 690.497C1531.26 690.421 1531.7 690.039 1531.84 689.477C1532.02 688.749 1531.61 688.014 1530.88 687.833C1530.15 687.653 1529.41 688.1 1529.23 688.829C1529.09 689.39 1529.34 689.945 1529.78 690.267L1529.35 692.02C1519.15 697.323 1515.24 690.979 1508.94 702.941C1508.94 702.941 1513.44 700.37 1518.04 703.055C1521.75 705.24 1524.96 705.473 1526.02 705.456L1518.39 736.199L1518 736.101ZM1518.51 882.609L1514.57 881.633L1513.33 886.662L1507.57 885.234L1508.81 880.204L1504.68 879.179L1503.43 884.208L1501.58 883.749L1508.79 854.694C1513.75 855.502 1517.45 855.297 1520.17 854.672L1518.56 862.738L1516.25 877.447C1521.47 860.335 1519.8 866.35 1523.07 853.741C1523.27 853.649 1523.44 853.551 1523.63 853.459L1521.18 865.778L1518.51 882.609ZM1427.46 853.004L1428.85 853.349L1430.6 846.301L1430.61 846.268C1430.96 844.844 1432.45 843.948 1433.87 844.301C1435.33 844.662 1436.19 846.141 1435.84 847.564L1435.83 847.597L1434.08 854.645L1435.47 854.99L1435.18 856.149L1427.18 854.163L1427.46 853.004L1427.46 853.004ZM1438.44 957.74L1451.45 960.965L1451.97 957.441C1450.73 957.204 1449.5 956.932 1448.22 956.687L1447.79 958.44L1439.38 956.356C1438.89 956.232 1438.43 956.538 1438.31 957.003C1438.24 957.268 1438.32 957.533 1438.44 957.74ZM1452.11 961.129L1454.59 961.744L1455.34 958.169C1454.44 957.948 1453.54 957.759 1452.64 957.572L1452.11 961.129ZM1455.25 961.908L1458.4 962.688L1459.3 959.046C1458.21 958.776 1457.11 958.538 1455.97 958.293L1455.25 961.908ZM1459.06 962.852L1461.9 963.558L1462.98 959.925C1461.95 959.67 1460.96 959.424 1459.96 959.21L1459.06 962.852ZM1462.57 963.722L1465.08 964.346L1466.31 960.786C1465.42 960.564 1464.54 960.31 1463.64 960.088L1462.57 963.722ZM1465.74 964.51L1478.98 967.792C1479.22 967.676 1479.41 967.477 1479.47 967.211C1479.59 966.748 1479.29 966.252 1478.83 966.137L1470.42 964.053L1470.92 962.066C1469.57 961.664 1468.26 961.303 1466.97 960.983L1465.74 964.51ZM1497.08 972.281L1510.05 975.498L1510.58 971.974C1509.34 971.738 1508.1 971.466 1506.83 971.221L1506.4 972.974L1497.99 970.889C1497.49 970.766 1497.03 971.072 1496.92 971.537C1496.85 971.802 1496.92 972.067 1497.08 972.281ZM1510.72 975.663L1513.2 976.278L1513.94 972.704C1513.05 972.482 1512.15 972.293 1511.25 972.106L1510.72 975.663ZM1513.86 976.442L1517 977.222L1517.91 973.58C1516.81 973.309 1515.72 973.072 1514.61 972.835L1513.86 976.442ZM1517.67 977.386L1520.51 978.092L1521.59 974.458C1520.56 974.204 1519.57 973.958 1518.57 973.744L1517.67 977.386ZM1521.17 978.256L1523.69 978.88L1524.92 975.32C1524.03 975.099 1523.14 974.844 1522.25 974.623L1521.17 978.256ZM1524.35 979.044L1537.59 982.326C1537.83 982.21 1538.02 982.01 1538.08 981.745C1538.2 981.282 1537.9 980.786 1537.44 980.671L1529.03 978.587L1529.52 976.6C1528.18 976.198 1526.87 975.837 1525.58 975.517L1524.35 979.044ZM1463.56 944.683L1462.6 948.588C1463.73 948.834 1464.89 949.121 1466.07 949.45L1467.11 945.843L1466.45 945.646L1467.35 944.428L1468.26 943.177L1468.34 944.708L1468.45 946.245L1467.76 946.04L1466.7 949.606C1467.79 949.877 1468.85 950.14 1469.97 950.451L1471.01 947.514L1470.33 947.276L1471.29 946.107L1472.26 944.906L1472.29 946.46L1472.3 947.972L1471.63 947.735L1470.62 950.648C1471.58 950.886 1472.53 951.157 1473.55 951.444L1478.09 933.143L1478.1 933.076C1479.66 926.821 1475.85 920.504 1469.59 918.953C1463.34 917.402 1457.02 921.209 1455.47 927.463L1455.45 927.53L1450.86 946.061C1451.79 946.26 1452.7 946.414 1453.57 946.594L1454.05 943.377L1453.38 943.279L1454.09 941.947L1454.82 940.582L1455.11 942.094L1455.41 943.574L1454.73 943.475L1454.24 946.726C1455.34 946.964 1456.44 947.201 1457.51 947.431L1458.26 943.682L1457.59 943.551L1458.37 942.235L1459.19 940.927L1459.41 942.457L1459.64 943.954L1458.93 943.814L1458.18 947.561C1459.45 947.84 1460.67 948.143 1461.94 948.421L1462.9 944.516L1462.21 944.344L1463.08 943.085L1463.93 941.818L1464.08 943.332L1464.23 944.845L1463.57 944.68L1463.56 944.683ZM1473.36 952.206C1472.34 951.919 1471.33 951.631 1470.34 951.352L1467.23 960.24C1468.47 960.585 1469.76 960.939 1471.11 961.307L1473.36 952.206ZM1448.41 955.926C1449.65 956.162 1450.89 956.433 1452.09 956.663L1453.45 947.374C1452.54 947.22 1451.6 947.023 1450.67 946.827L1448.41 955.926ZM1507.02 970.46C1508.29 970.704 1509.49 970.967 1510.7 971.197L1512.06 961.908C1511.14 961.753 1510.21 961.556 1509.28 961.361L1507.02 970.46ZM1509.47 960.597C1510.4 960.795 1511.31 960.95 1512.18 961.129L1512.66 957.913L1511.98 957.814L1512.7 956.482L1513.42 955.117L1513.71 956.629L1514.01 958.109L1513.34 958.01L1512.85 961.261C1513.95 961.5 1515.05 961.736 1516.11 961.966L1516.87 958.218L1516.2 958.086L1516.98 956.771L1517.8 955.462L1518.01 956.992L1518.24 958.489L1517.54 958.349L1516.79 962.096C1518.05 962.375 1519.28 962.644 1520.54 962.956L1521.51 959.051L1520.82 958.879L1521.69 957.621L1522.53 956.353L1522.68 957.867L1522.84 959.38L1522.17 959.216L1521.2 963.121C1522.34 963.367 1523.5 963.655 1524.68 963.983L1525.72 960.376L1525.06 960.179L1525.96 958.961L1526.87 957.71L1526.95 959.241L1527.06 960.778L1526.37 960.573L1525.31 964.139C1526.4 964.41 1527.46 964.673 1528.58 964.984L1529.62 962.047L1528.95 961.809L1529.9 960.641L1530.87 959.44L1530.9 960.993L1530.91 962.506L1530.24 962.268L1529.23 965.182C1530.19 965.42 1531.15 965.691 1532.16 965.977L1536.7 947.677L1536.72 947.61C1538.27 941.355 1534.46 935.038 1528.21 933.487C1521.95 931.936 1515.63 935.743 1514.08 941.997L1514.07 942.064L1509.47 960.598L1509.47 960.597ZM1531.97 966.74C1530.95 966.453 1529.93 966.164 1528.98 965.894L1525.83 974.774C1527.08 975.119 1528.36 975.473 1529.71 975.841L1531.97 966.74ZM1511.34 971.32C1512.27 971.517 1513.21 971.714 1514.1 971.936L1515.96 962.735C1514.89 962.506 1513.83 962.276 1512.72 962.072L1511.34 971.32ZM1514.77 972.066C1515.87 972.304 1517 972.549 1518.09 972.819L1520.35 963.719C1519.13 963.415 1517.9 963.145 1516.63 962.865L1514.77 972.066ZM1518.76 972.983C1519.75 973.23 1520.78 973.453 1521.8 973.739L1524.46 964.704C1523.31 964.416 1522.15 964.129 1521.01 963.883L1518.76 972.983ZM1522.46 973.902C1523.36 974.124 1524.25 974.345 1525.17 974.608L1528.32 965.728C1527.23 965.424 1526.14 965.154 1525.09 964.858L1522.46 973.902ZM1466.56 960.076L1469.71 951.195C1468.63 950.892 1467.54 950.621 1466.49 950.326L1463.86 959.368C1464.75 959.59 1465.64 959.812 1466.56 960.076ZM1463.2 959.204L1465.86 950.17C1464.7 949.882 1463.54 949.595 1462.41 949.349L1460.15 958.449C1461.14 958.696 1462.18 958.919 1463.2 959.204ZM1459.49 958.285L1461.75 949.185C1460.52 948.882 1459.29 948.61 1458.02 948.332L1456.16 957.531C1457.26 957.77 1458.4 958.015 1459.49 958.285ZM1455.49 957.402L1457.35 948.202C1456.29 947.972 1455.22 947.742 1454.11 947.538L1452.73 956.786C1453.66 956.982 1454.6 957.181 1455.49 957.402ZM1551.2 888.046L1552.96 880.964C1553.32 879.507 1554.77 878.636 1556.19 878.989C1557.64 879.35 1558.52 880.796 1558.15 882.252L1556.4 889.334L1557.82 889.687L1557.54 890.812L1549.5 888.818L1549.78 887.693L1551.2 888.046ZM1560.93 848.83L1562.68 841.748C1563.04 840.324 1564.49 839.42 1565.91 839.773C1567.37 840.134 1568.23 841.612 1567.88 843.036L1566.12 850.118L1567.55 850.471L1567.26 851.63L1559.22 849.636L1559.51 848.477L1560.93 848.83ZM1526.28 704.397L1529.17 692.748C1526.79 696.656 1525.96 700.312 1526.28 704.397ZM1498.21 839.985L1494 838.943L1492.43 845.264L1492.61 845.272L1492.77 845.313L1492.92 845.314L1492.95 845.321L1493.09 845.321L1493.26 845.33L1493.39 845.363L1493.43 845.371C1493.5 845.354 1493.61 845.346 1493.71 845.371L1493.72 845.338L1493.75 845.346L1493.82 845.363L1493.89 845.346L1493.92 845.355L1494.03 845.346L1494.06 845.354L1494.14 845.338L1494.2 845.355L1494.21 845.322L1494.24 845.33L1494.35 845.321L1494.38 845.329L1494.46 845.313L1494.53 845.297L1494.6 845.313L1494.67 845.297L1494.75 845.281L1494.82 845.264L1494.9 845.248L1495 845.238L1495.04 845.246L1495.15 845.205L1495.3 845.172L1495.33 845.18L1495.45 845.14L1495.48 845.148L1495.59 845.107L1495.63 845.114L1495.63 845.082L1495.71 845.065L1495.82 845.057L1495.9 845.008L1495.93 845.016L1495.97 844.991L1496.05 844.975L1496.05 844.942L1496.12 844.959L1496.2 844.91L1496.24 844.885L1496.32 844.868L1496.39 844.852L1496.48 844.803L1496.51 844.811L1496.55 844.786L1496.63 844.737L1496.67 844.712L1496.75 844.696L1496.83 844.647L1496.9 844.631L1496.94 844.606L1496.98 844.581L1497.03 844.557L1497.07 844.531L1497.11 844.506L1497.18 844.49L1497.23 844.432L1497.3 844.416C1498.78 843.587 1499.95 842.261 1500.56 840.622L1498.21 839.985ZM1500.36 834.688L1500.31 834.606L1500.26 834.524L1500.19 834.401L1500.2 834.368C1500.15 834.286 1500.1 834.203 1500.05 834.121L1500.01 834.113L1500.02 834.08L1499.94 833.99L1499.95 833.957L1499.87 833.833L1499.84 833.825L1499.77 833.702L1499.77 833.668L1499.74 833.66C1499.69 833.578 1499.64 833.495 1499.56 833.404L1499.48 833.313L1499.45 833.272L1499.37 833.182L1499.35 833.141L1499.23 833.043L1499.12 832.91L1499.07 832.828L1499.01 832.778C1498.96 832.728 1498.87 832.638 1498.82 832.589L1498.79 832.548L1498.73 832.499L1498.67 832.449L1498.64 832.442L1498.65 832.409L1498.53 832.31L1498.42 832.212L1498.39 832.204L1498.27 832.105L1498.18 832.048L1498.15 832.007L1498.11 831.997L1498.02 831.94L1498 831.899L1497.87 831.833L1497.85 831.793L1497.73 831.727L1497.69 831.719L1497.58 831.619L1497.42 831.545L1497.3 831.447L1497.27 831.439L1497.15 831.373L1497.11 831.365L1496.99 831.299L1496.96 831.291L1496.8 831.217L1496.68 831.152L1496.64 831.143L1496.52 831.078L1496.48 831.069L1496.32 831.028L1496.2 830.963L1496.16 830.955L1496 830.914L1494.27 837.863L1498.54 838.922L1500.92 839.546C1501.3 837.838 1501.05 836.16 1500.36 834.688ZM1492.91 838.672L1491.34 844.993L1491.19 844.919L1491.09 844.895L1491.05 844.887L1491.02 844.879L1491 844.838L1490.9 844.814L1490.87 844.806L1490.8 844.789L1490.78 844.748L1490.74 844.74L1490.71 844.732L1490.64 844.716L1490.61 844.708L1490.59 844.667L1490.56 844.659L1490.46 844.634L1490.43 844.593L1490.4 844.585L1490.33 844.569L1490.3 844.561L1490.31 844.528L1490.28 844.52L1490.24 844.512L1490.21 844.504L1490.15 844.455L1490.12 844.446L1490.09 844.439L1490.07 844.398L1490.03 844.39L1490 844.382L1489.97 844.374L1489.94 844.333L1489.91 844.325L1489.88 844.316L1489.82 844.268L1489.79 844.259L1489.75 844.251L1489.76 844.218L1489.73 844.21L1489.7 844.202L1489.67 844.161L1489.6 844.145L1489.58 844.104L1489.55 844.096L1489.52 844.088L1489.49 844.047L1489.46 844.039L1489.4 843.99L1489.37 843.982L1489.34 843.974L1489.35 843.941L1489.29 843.892L1489.25 843.884L1489.22 843.875L1489.2 843.834L1489.16 843.826L1489.14 843.784L1489.11 843.776L1489.08 843.735L1489.05 843.727L1489.03 843.687L1488.99 843.678C1487.07 842.078 1486 839.598 1486.33 837.011L1492.91 838.672ZM1491.44 830.86L1491.48 830.835L1491.59 830.827L1491.63 830.802L1491.67 830.777L1491.7 830.785L1491.74 830.76L1491.78 830.769L1491.78 830.736L1491.89 830.727L1491.93 830.703L1492 830.719L1492.01 830.685L1492.04 830.693L1492.11 830.677L1492.15 830.652L1492.19 830.66L1492.26 830.644L1492.3 830.619L1492.37 830.636L1492.41 830.611L1492.48 830.594L1492.52 830.603L1492.62 830.595L1492.7 830.578L1492.81 830.57L1492.85 830.545L1492.91 830.562L1492.99 830.545L1493.02 830.554L1493.06 830.529L1493.13 830.546L1493.17 830.521L1493.23 830.537L1493.34 830.529L1493.38 830.504L1493.45 830.521L1493.52 830.504L1493.55 830.512L1493.66 830.504L1493.69 830.512L1493.73 830.52L1493.83 830.511L1493.87 830.52L1493.9 830.528L1494.04 830.528L1494.18 830.528L1494.21 830.536L1494.35 830.536L1494.39 830.545L1494.45 830.561L1494.48 830.569L1494.55 830.585L1494.56 830.552L1494.72 830.593L1494.89 830.634L1493.17 837.584L1486.51 835.935C1487.22 833.433 1489.12 831.585 1491.44 830.86ZM1507.55 784.306C1511.16 785.482 1513.29 789.207 1512.47 792.938L1505.83 791.255L1507.55 784.306ZM1512.14 794.014C1510.9 797.291 1507.5 799.258 1503.99 798.669L1505.56 792.348L1512.14 794.014ZM1502.9 798.399C1499.52 797.28 1497.44 793.919 1497.85 790.436L1504.47 792.078L1502.9 798.399ZM1498.09 789.335C1499.14 785.661 1502.75 783.397 1506.46 784.035L1504.74 790.984L1498.09 789.335Z" fill="#EDE8D3"/>
<path fill-rule="evenodd" clip-rule="evenodd" d="M1588.51 858.553L1583.99 868.039L1579.12 865.708L1583.68 856.231L1580.26 854.576C1582.87 854.695 1585.16 853.682 1587.22 851.874C1588.26 850.937 1589.8 848.859 1590.18 848.288C1590.01 848.983 1589.36 851.456 1589.29 852.879C1589.15 855.583 1589.81 857.996 1591.53 860.003L1588.51 858.553ZM1584.35 861.877L1583.44 861.44L1584.57 858.875L1584.6 858.883C1584.8 858.37 1585.42 858.137 1585.92 858.368C1586.43 858.598 1586.67 859.184 1586.43 859.724L1585.27 862.282L1584.35 861.877Z" fill="#EDE8D3"/>
<path fill-rule="evenodd" clip-rule="evenodd" d="M1593.89 1031.07C1603.39 1034.86 1608.53 1037.76 1608.13 1039.38C1606.77 1044.87 1542.83 1033.72 1465.32 1014.5C1387.82 995.279 1326.08 975.262 1327.44 969.767C1327.79 968.376 1332.32 968.061 1340.17 968.71C1346.23 951.067 1405.99 950.5 1475.05 967.627C1543.45 984.591 1595.65 1012.64 1593.89 1031.07Z" fill="#EDE8D3"/>
<path fill-rule="evenodd" clip-rule="evenodd" d="M1434.63 928.936C1435.13 929.447 1435.13 930.292 1434.62 930.796C1434.29 931.136 1433.81 931.227 1433.38 931.121C1433.49 931.535 1433.37 932.031 1433.04 932.371C1432.68 932.669 1432.23 932.801 1431.8 932.695C1431.91 933.109 1431.79 933.572 1431.43 933.902C1431.1 934.241 1430.61 934.366 1430.18 934.26C1430.29 934.674 1430.17 935.136 1429.84 935.476C1429.51 935.815 1429.03 935.908 1428.6 935.801C1428.7 936.246 1428.59 936.711 1428.26 937.05C1427.9 937.381 1427.45 937.482 1427.02 937.374C1427.12 937.821 1427 938.285 1426.64 938.616C1426.32 938.923 1425.83 939.048 1425.4 938.941C1425.51 939.354 1425.38 939.852 1425.06 940.156C1424.73 940.497 1424.25 940.621 1423.82 940.514C1423.92 940.928 1423.81 941.39 1423.48 941.73C1423.12 942.061 1422.66 942.194 1422.24 942.055C1422.34 942.5 1422.22 942.965 1421.86 943.296C1421.53 943.635 1421.05 943.727 1420.62 943.621C1420.72 944.067 1420.61 944.531 1420.27 944.871C1419.94 945.209 1419.46 945.302 1419.04 945.196C1419.14 945.608 1419.02 946.106 1418.69 946.444C1418.33 946.743 1417.88 946.876 1417.45 946.769C1417.56 947.184 1417.44 947.647 1417.08 947.977C1416.75 948.316 1416.26 948.441 1415.84 948.302C1415.94 948.748 1415.83 949.212 1415.49 949.551C1415.16 949.891 1414.69 949.984 1414.25 949.877C1414.36 950.323 1414.24 950.786 1413.91 951.126C1413.55 951.456 1413.1 951.558 1412.67 951.451C1412.77 951.896 1412.65 952.361 1412.29 952.691C1411.97 952.999 1411.48 953.123 1411.05 953.016C1411.16 953.43 1411.04 953.926 1410.72 954.233C1410.39 954.573 1409.9 954.697 1409.47 954.59C1409.58 955.003 1409.46 955.466 1409.13 955.807C1408.77 956.137 1408.32 956.236 1407.89 956.129C1407.99 956.577 1407.88 957.042 1407.51 957.372C1407 957.877 1406.19 957.888 1405.69 957.341C1405.19 956.83 1405.18 956.019 1405.69 955.514C1406.05 955.183 1406.5 955.083 1406.93 955.189C1406.83 954.744 1406.94 954.279 1407.31 953.949C1407.64 953.609 1408.12 953.516 1408.51 953.614C1408.45 953.177 1408.56 952.714 1408.89 952.373C1409.21 952.066 1409.7 951.942 1410.13 952.049C1410.02 951.636 1410.15 951.138 1410.47 950.833C1410.83 950.502 1411.29 950.369 1411.72 950.477C1411.61 950.062 1411.72 949.599 1412.09 949.268C1412.42 948.93 1412.9 948.837 1413.29 948.935C1413.23 948.498 1413.34 948.033 1413.67 947.693C1414 947.354 1414.48 947.261 1414.91 947.368C1414.81 946.923 1414.93 946.458 1415.26 946.119C1415.62 945.789 1416.07 945.688 1416.5 945.794C1416.39 945.38 1416.51 944.884 1416.88 944.554C1417.2 944.246 1417.68 944.121 1418.08 944.219C1418.01 943.815 1418.12 943.352 1418.45 943.011C1418.78 942.673 1419.27 942.549 1419.69 942.688C1419.59 942.242 1419.71 941.776 1420.04 941.437C1420.37 941.099 1420.85 941.006 1421.28 941.113C1421.17 940.667 1421.29 940.202 1421.65 939.872C1421.98 939.532 1422.46 939.441 1422.86 939.539C1422.79 939.1 1422.91 938.637 1423.24 938.297C1423.56 937.991 1424.05 937.866 1424.48 937.972C1424.37 937.559 1424.49 937.062 1424.82 936.758C1425.15 936.417 1425.63 936.293 1426.06 936.4C1425.95 935.985 1426.07 935.522 1426.43 935.192C1426.76 934.853 1427.25 934.761 1427.64 934.859C1427.57 934.422 1427.69 933.957 1428.02 933.618C1428.35 933.278 1428.83 933.187 1429.26 933.293C1429.16 932.848 1429.27 932.383 1429.6 932.043C1429.93 931.704 1430.41 931.611 1430.84 931.718C1430.74 931.304 1430.86 930.808 1431.21 930.512C1431.54 930.171 1432 930.039 1432.43 930.146C1432.35 929.74 1432.47 929.278 1432.8 928.938C1433.31 928.434 1434.12 928.424 1434.63 928.936Z" fill="#EDE8D3"/>
<path fill-rule="evenodd" clip-rule="evenodd" d="M1585.85 1004.55C1588.55 1006.42 1587.38 1008.45 1584.97 1011.53C1582.58 1014.63 1580.11 1015.67 1578.6 1014.56C1577.07 1013.48 1577.57 1011.21 1579.45 1007.57C1581.38 1003.9 1583.16 1002.65 1585.85 1004.55ZM1568.81 992.704C1571.5 994.601 1570.36 996.637 1567.94 999.726C1565.52 1002.81 1563.09 1003.86 1561.57 1002.75C1560.02 1001.63 1560.51 999.394 1562.44 995.725C1564.35 992.092 1566.11 990.838 1568.81 992.704ZM1574.39 985.06L1580.72 988.282L1584.62 980.643L1589.63 983.221L1585.75 990.829L1592.07 994.083L1589.73 998.701L1583.4 995.48L1574.26 1013.34L1569.25 1010.76L1578.38 992.902L1572.05 989.679L1574.39 985.06Z" fill="#EDE8D3"/>
<path fill-rule="evenodd" clip-rule="evenodd" d="M1360.75 938.438L1366.37 938.849L1366.87 932.051L1371.35 932.389L1370.82 939.18L1376.44 939.623L1376.13 943.726L1370.51 943.283L1369.31 959.177L1364.86 958.847L1366.06 942.951L1360.44 942.54L1360.75 938.438ZM1386.18 942.284C1391.85 943.48 1391.35 947.64 1389.52 954.319C1387.72 961.003 1384.4 964.325 1381.17 963.596C1377.92 962.824 1377.19 958.848 1377.8 951.553C1378.45 944.267 1380.51 941.054 1386.18 942.284Z" fill="#EDE8D3"/>
<path fill-rule="evenodd" clip-rule="evenodd" d="M1548.6 964.822C1547.96 965.154 1547.69 965.933 1548.03 966.579C1548.24 966.982 1548.66 967.263 1549.11 967.303C1548.88 967.667 1548.83 968.149 1549.04 968.585C1549.25 968.989 1549.68 969.237 1550.1 969.268C1549.86 969.666 1549.84 970.155 1550.06 970.558C1550.27 970.997 1550.67 971.237 1551.11 971.276C1550.88 971.641 1550.83 972.121 1551.07 972.566C1551.29 972.971 1551.68 973.244 1552.13 973.25C1551.9 973.649 1551.85 974.127 1552.06 974.532C1552.27 974.971 1552.7 975.218 1553.15 975.258C1552.92 975.621 1552.87 976.102 1553.08 976.539C1553.29 976.944 1553.71 977.225 1554.16 977.265C1553.9 977.62 1553.88 978.109 1554.09 978.547C1554.3 978.95 1554.73 979.197 1555.15 979.23C1554.91 979.628 1554.89 980.116 1555.11 980.52C1555.32 980.957 1555.72 981.197 1556.16 981.238C1555.93 981.601 1555.88 982.082 1556.09 982.518C1556.31 982.923 1556.73 983.204 1557.18 983.211C1556.94 983.609 1556.89 984.088 1557.11 984.492C1557.32 984.93 1557.75 985.178 1558.19 985.219C1557.96 985.582 1557.92 986.064 1558.12 986.499C1558.34 986.904 1558.76 987.185 1559.18 987.219C1558.94 987.582 1558.93 988.071 1559.14 988.507C1559.35 988.911 1559.75 989.151 1560.2 989.19C1559.96 989.588 1559.91 990.069 1560.16 990.48C1560.37 990.919 1560.76 991.159 1561.21 991.198C1560.98 991.562 1560.93 992.043 1561.14 992.48C1561.35 992.884 1561.78 993.166 1562.23 993.172C1561.99 993.571 1561.94 994.049 1562.16 994.453C1562.37 994.892 1562.8 995.14 1563.21 995.171C1562.98 995.536 1562.97 996.024 1563.17 996.461C1563.39 996.866 1563.78 997.139 1564.22 997.179C1563.99 997.542 1563.98 998.032 1564.19 998.469C1564.4 998.872 1564.8 999.113 1565.25 999.153C1565.01 999.55 1564.96 1000.03 1565.17 1000.43C1565.51 1001.08 1566.28 1001.34 1566.93 1001.01C1567.57 1000.68 1567.84 999.899 1567.51 999.256C1567.29 998.851 1566.9 998.579 1566.45 998.571C1566.68 998.174 1566.73 997.695 1566.48 997.282C1566.27 996.843 1565.88 996.604 1565.43 996.564C1565.66 996.201 1565.71 995.72 1565.5 995.283C1565.29 994.878 1564.87 994.597 1564.42 994.557C1564.65 994.194 1564.7 993.712 1564.49 993.275C1564.27 992.872 1563.84 992.625 1563.43 992.592C1563.67 992.194 1563.68 991.706 1563.47 991.302C1563.26 990.864 1562.86 990.625 1562.42 990.584C1562.65 990.22 1562.66 989.731 1562.45 989.295C1562.24 988.891 1561.85 988.617 1561.39 988.61C1561.63 988.213 1561.68 987.733 1561.47 987.329C1561.26 986.891 1560.83 986.644 1560.38 986.603C1560.61 986.239 1560.66 985.758 1560.45 985.321C1560.24 984.918 1559.82 984.636 1559.37 984.595C1559.6 984.232 1559.65 983.751 1559.44 983.315C1559.23 982.91 1558.8 982.663 1558.38 982.63C1558.62 982.233 1558.64 981.744 1558.42 981.341C1558.21 980.903 1557.82 980.663 1557.37 980.624C1557.6 980.259 1557.65 979.779 1557.44 979.342C1557.19 978.929 1556.8 978.656 1556.35 978.65C1556.59 978.251 1556.64 977.773 1556.42 977.368C1556.21 976.93 1555.78 976.682 1555.34 976.643C1555.57 976.278 1555.61 975.798 1555.41 975.361C1555.19 974.956 1554.77 974.675 1554.35 974.643C1554.59 974.28 1554.6 973.791 1554.39 973.353C1554.18 972.949 1553.78 972.71 1553.33 972.67C1553.57 972.272 1553.62 971.793 1553.37 971.38C1553.16 970.942 1552.77 970.703 1552.32 970.662C1552.55 970.299 1552.6 969.817 1552.39 969.38C1552.18 968.977 1551.75 968.695 1551.3 968.689C1551.54 968.291 1551.59 967.811 1551.37 967.408C1551.16 966.969 1550.73 966.722 1550.28 966.68C1550.55 966.326 1550.57 965.836 1550.36 965.399C1550.02 964.755 1549.24 964.492 1548.6 964.822Z" fill="#EDE8D3"/>
<ellipse cx="864.593" cy="1144.72" rx="870.844" ry="217.938" fill="#EDE8D3"/>
<g clip-path="url(#clip0_375_183)">
<path d="M143.306 865.478C144.941 865.04 145.937 863.311 145.499 861.674C145.06 860.038 143.333 859.039 141.698 859.477C140.064 859.914 139.067 861.643 139.506 863.28C139.944 864.917 141.672 865.916 143.306 865.478Z" fill="#EDE8D3"/>
<path d="M301.973 898.685C300.339 899.123 299.342 900.851 299.781 902.488C300.219 904.125 301.947 905.124 303.581 904.686C305.216 904.248 306.212 902.519 305.774 900.882C305.335 899.246 303.608 898.247 301.973 898.685Z" fill="#EDE8D3"/>
<path d="M136.396 849.495C135.958 847.859 134.23 846.86 132.596 847.297C130.962 847.735 129.965 849.464 130.404 851.101C130.842 852.738 132.569 853.737 134.204 853.299C135.838 852.861 136.835 851.132 136.396 849.495Z" fill="#EDE8D3"/>
<path d="M320.396 899.888C318.762 900.326 317.766 902.055 318.204 903.691C318.643 905.328 320.37 906.327 322.004 905.889C323.639 905.451 324.635 903.722 324.197 902.086C323.758 900.449 322.031 899.45 320.396 899.888Z" fill="#EDE8D3"/>
<path d="M307.507 882.291C305.873 882.729 304.876 884.458 305.315 886.095C305.753 887.732 307.481 888.731 309.115 888.293C310.749 887.855 311.746 886.126 311.307 884.489C310.869 882.853 309.141 881.854 307.507 882.291Z" fill="#EDE8D3"/>
<path d="M153.962 848.589C153.231 845.861 150.467 844.263 147.744 844.993C145.02 845.723 143.425 848.489 144.156 851.217C144.887 853.944 147.651 855.543 150.375 854.813C153.099 854.083 154.693 851.317 153.962 848.589ZM146.88 850.487C146.588 849.396 147.385 848.012 148.474 847.721C149.564 847.429 150.946 848.228 151.238 849.319C151.531 850.41 150.733 851.793 149.644 852.085C148.554 852.377 147.172 851.578 146.88 850.487Z" fill="#EDE8D3"/>
<path d="M288.931 876.159C286.207 876.889 284.612 879.655 285.343 882.383C286.074 885.111 288.838 886.709 291.562 885.979C294.286 885.249 295.88 882.483 295.149 879.755C294.419 877.028 291.655 875.429 288.931 876.159ZM290.831 883.251C289.742 883.543 288.36 882.744 288.067 881.653C287.775 880.562 288.572 879.179 289.662 878.887C290.751 878.595 292.133 879.394 292.426 880.485C292.718 881.576 291.921 882.96 290.831 883.251Z" fill="#EDE8D3"/>
<path d="M129.816 765.011C130.361 764.865 130.832 764.447 130.759 764.174C130.686 763.901 132.28 749.148 145.401 740.37C145.873 739.951 146.072 739.606 145.654 739.133C145.235 738.66 144.89 738.461 144.418 738.879C130.553 748.149 129.105 763.448 128.979 764.066C129.125 764.612 129.544 765.084 129.816 765.011Z" fill="#EDE8D3"/>
<path d="M235.176 865.127L232.379 865.584C230.671 865.749 229.329 867.279 229.15 868.788C228.605 868.934 228.061 869.08 227.788 869.153C227.297 868.408 226.659 867.117 225.277 866.318C225.277 866.318 215.351 861.961 206.588 869.571C206.588 869.571 204.336 869.882 204.21 870.501C204.01 870.847 205.1 870.555 205.1 870.555C205.1 870.555 203.266 871.339 203.884 871.465C204.156 871.392 204.429 871.319 204.701 871.246C204.429 871.319 203.957 871.738 204.303 871.938C204.921 872.065 205.592 871.3 205.592 871.3C205.592 871.3 204.449 872.483 205.339 872.537C205.957 872.664 206.482 871.354 206.482 871.354C206.482 871.354 206.156 872.318 206.701 872.172C207.246 872.026 207.498 870.789 207.498 870.789C207.498 870.789 212.813 865.564 220.248 868.25C220.248 868.25 212.275 870.094 207.126 877.029C207.126 877.029 196.078 887.006 202.417 897.586C201.181 897.333 199.327 896.952 198.929 897.644C198.058 898.754 203.128 899.15 203.307 897.64C203.307 897.64 199.699 890.713 206.502 884.505C206.502 884.505 203.978 896.876 211.233 901.071L211.505 900.998C210.489 901.563 208.802 902.892 210.11 903.419C212.037 904.072 212.668 900.979 212.25 900.507C211.831 900.034 206.409 895.055 210.07 889.104L212.608 885.5C212.608 885.5 218.607 876.291 224.912 876.941C224.912 876.941 225.576 883.779 221.949 887.675C221.949 887.675 220.168 887.567 220.042 888.186C219.916 888.804 221.55 888.366 221.55 888.366C221.55 888.366 219.59 889.769 220.009 890.241C220.355 890.441 221.099 889.949 221.298 889.604C220.826 890.022 220.228 891.06 220.919 891.459C221.265 891.659 221.663 890.967 221.863 890.622C221.736 891.24 221.61 891.859 221.956 892.059C222.301 892.258 222.427 891.64 222.554 891.021C222.427 891.64 222.574 892.185 222.773 891.84C223.245 891.421 223.404 888.747 223.404 888.747C223.404 888.747 229.529 878.919 228.174 871.681C228.446 871.608 228.718 871.535 229.263 871.389C229.974 872.953 231.702 873.952 233.681 873.714L236.478 873.257C238.731 872.946 240.199 870.798 239.886 868.543C239.302 866.361 237.428 864.816 235.176 865.127Z" fill="#EDE8D3"/>
<path d="M267.806 749.38L266.643 749.399C248.804 714.418 208.682 696.517 170.819 706.662C132.957 716.807 107.433 752.298 109.401 791.24C92.9709 798.565 66.5226 812.084 69.227 822.177C72.0044 832.543 103.031 830.661 121.195 828.718C135.944 827.105 152.653 824.089 170.032 820.309L164.723 969.375C164.669 970.266 165.36 970.666 165.978 970.793L166.251 970.72C166.795 970.574 167.267 970.155 167.32 969.264L172.756 819.58C181.274 817.59 189.791 815.6 198.507 813.264C208.041 810.71 217.229 807.955 226.145 805.274L226.218 805.547L306.585 932.24C307.004 932.713 307.695 933.112 308.239 932.966L308.512 932.893C309.256 932.402 309.309 931.51 308.891 931.038L229.414 804.398C246.355 798.982 261.715 793.112 275.022 787.207C291.18 779.954 318.173 766.29 315.468 756.197C312.91 746.65 285.153 747.655 267.806 749.38ZM111.687 812.846C109.235 813.503 106.471 811.905 105.814 809.45C105.156 806.995 106.75 804.229 109.202 803.572C111.653 802.915 114.417 804.513 115.075 806.968C115.733 809.423 114.138 812.19 111.687 812.846ZM167.833 807.742C165.381 808.399 162.618 806.801 161.96 804.346C161.302 801.891 162.896 799.125 165.348 798.468C167.799 797.811 170.563 799.409 171.221 801.864C171.879 804.319 170.284 807.086 167.833 807.742ZM221.222 793.437C218.77 794.094 216.006 792.496 215.348 790.041C214.691 787.586 216.285 784.819 218.737 784.163C221.188 783.506 223.952 785.104 224.61 787.559C225.268 790.014 223.673 792.78 221.222 793.437ZM191.171 780.439C147.044 792.263 115.692 795.109 111.38 791.001C109.359 752.951 134.558 718.425 171.331 708.572C208.376 698.645 247.88 716.419 264.956 750.728C260.751 756.825 232.847 769.272 191.171 780.439ZM272.398 769.784C269.946 770.441 267.182 768.843 266.524 766.388C265.867 763.933 267.461 761.167 269.912 760.51C272.364 759.853 275.128 761.451 275.786 763.906C276.443 766.361 274.849 769.127 272.398 769.784Z" fill="#EDE8D3"/>
</g>
<defs>
<clipPath id="clip0_375_183">
<rect width="282" height="353" fill="white" transform="translate(30.6236 729.317) rotate(-15)"/>
</clipPath>
</defs>
</svg>
